<svg width="95" height="28" viewBox="0 0 95 28" fill="none" xmlns="http://www.w3.org/2000/svg">
<path d="M34.3188 1.38169V19.4828C34.3188 19.4828 34.3808 22.2854 32.0523 24.9476C29.7238 27.6098 26.6672 27.9322 25.8577 27.9322C25.0481 27.9322 22.3755 27.9322 22.3755 27.9322L22.8162 7.79696C22.8162 7.79696 22.8738 4.76996 25.4125 2.24112C27.8315 -0.168467 30.9191 0.00288923 30.9191 0.00288923H32.9842C32.9842 0.00200595 34.3188 -0.12342 34.3188 1.38169Z" fill="url(#paint0_linear_1405_16921)"/>
<path d="M11.2863 15.6689L11.3883 27.9324H1.21134C1.21134 27.9324 7.69326e-05 27.9042 7.69326e-05 26.9617C7.69326e-05 26.0192 7.69326e-05 23.2837 7.69326e-05 23.2837C7.69326e-05 23.2837 -0.045146 20.5765 2.05728 18.302C4.1597 16.0284 6.66735 15.729 7.44855 15.729C8.22976 15.729 11.2863 15.6689 11.2863 15.6689Z" fill="url(#paint1_linear_1405_16921)"/>
<path d="M22.867 27.9319H10.8218L11.2855 15.6684C11.2855 15.6684 11.1428 12.7492 13.8499 10.1541C15.7076 8.37342 17.4323 7.92383 18.938 7.92383C20.4436 7.92383 22.8129 7.92383 22.8129 7.92383L22.867 27.9319Z" fill="url(#paint2_linear_1405_16921)"/>
<path opacity="0.61" d="M22.3652 27.9329C22.3652 27.9329 22.5692 27.9329 22.8671 27.9329L22.8139 7.9248L22.3652 27.9329Z" fill="#B50D31"/>
<path opacity="0.59" d="M11.2853 15.5176L10.8101 27.9321H11.3758L11.2853 15.5176Z" fill="#C84E28"/>
<path fill-rule="evenodd" clip-rule="evenodd" d="M49.6026 10.2736H46.7342H46.7333V11.5332C46.2224 11.0156 45.6664 10.6269 45.0644 10.3681C44.4633 10.1093 43.8198 9.97949 43.1339 9.97949C41.6435 9.97949 40.3769 10.543 39.3347 11.6701C38.2925 12.7972 37.771 14.2422 37.771 16.0061C37.771 17.7073 38.3093 19.1294 39.3868 20.2741C40.4644 21.4189 41.7417 21.9912 43.2178 21.9912C43.8755 21.9912 44.4863 21.8738 45.0494 21.6397C45.6124 21.4047 46.1746 21.0214 46.7342 20.4896V21.6971H49.6026V10.2736ZM41.5092 13.5656C42.0961 12.9394 42.8324 12.6258 43.719 12.6258C44.626 12.6258 45.3764 12.9341 45.9704 13.5497C46.5636 14.1654 46.8606 14.9709 46.8606 15.9646C46.8606 16.9804 46.5636 17.8009 45.9704 18.4272C45.3773 19.0534 44.6304 19.367 43.7296 19.367C42.8572 19.367 42.1218 19.0481 41.5251 18.4113C40.9284 17.7744 40.6297 16.9618 40.6297 15.9752C40.6297 14.9956 40.9231 14.1919 41.5092 13.5656Z" fill="#ffffff"/>
<path fill-rule="evenodd" clip-rule="evenodd" d="M54.9161 6.11618C54.5563 5.75227 54.125 5.57031 53.622 5.57031C53.119 5.57031 52.6894 5.74874 52.3332 6.10558C51.977 6.46243 51.7993 6.89258 51.7993 7.39694C51.7993 7.92249 51.9788 8.36855 52.3385 8.73599C52.6983 9.10344 53.1332 9.28716 53.6432 9.28716C54.1391 9.28716 54.5652 9.10697 54.9214 8.74659C55.2776 8.38621 55.4553 7.95075 55.4553 7.43933C55.4553 6.92085 55.2759 6.48009 54.9161 6.11618ZM55.0558 10.2738H52.1874V21.6973H55.0558V10.2738Z" fill="#ffffff"/>
<path d="M56.9897 10.2737H59.4489V11.7126C59.7149 11.1455 60.0685 10.7154 60.5105 10.4212C60.9516 10.1271 61.4351 9.98047 61.9601 9.98047C62.3314 9.98047 62.7203 10.0785 63.127 10.2746L62.2342 12.7416C61.8983 12.5738 61.6207 12.4899 61.4042 12.4899C60.9631 12.4899 60.59 12.7628 60.2851 13.3087C59.9801 13.8545 59.8281 14.926 59.8281 16.5212L59.8387 17.0776V21.6972H56.9915V10.2737H56.9897Z" fill="#ffffff"/>
<path fill-rule="evenodd" clip-rule="evenodd" d="M75.1548 10.2736H72.2864H72.2855V11.5332C71.7746 11.0156 71.2186 10.6269 70.6166 10.3681C70.0156 10.1093 69.3721 9.97949 68.6861 9.97949C67.1958 9.97949 65.9291 10.543 64.8869 11.6701C63.8448 12.7972 63.3232 14.2422 63.3232 16.0061C63.3232 17.7073 63.8616 19.1294 64.9391 20.2741C66.0166 21.4189 67.2939 21.9912 68.7701 21.9912C69.4277 21.9912 70.0385 21.8738 70.6016 21.6397C71.1647 21.4047 71.7269 21.0214 72.2864 20.4896V21.6971H75.1548V10.2736ZM67.0614 13.5656C67.6484 12.9394 68.3847 12.6258 69.2713 12.6258C70.1791 12.6258 70.9296 12.9341 71.5227 13.5497C72.1158 14.1654 72.4128 14.9709 72.4128 15.9646C72.4128 16.9804 72.1158 17.8009 71.5227 18.4272C70.9296 19.0534 70.1826 19.367 69.2819 19.367C68.4086 19.367 67.674 19.0481 67.0773 18.4113C66.4798 17.7744 66.1819 16.9618 66.1819 15.9752C66.1819 14.9956 66.4745 14.1919 67.0614 13.5656Z" fill="#ffffff"/>
<path d="M77.7402 5.86426H80.6086V21.6979H77.7402V5.86426Z" fill="#ffffff"/>
<path fill-rule="evenodd" clip-rule="evenodd" d="M91.6249 10.7887C90.6756 10.2499 89.6617 9.98047 88.5833 9.98047C87.0912 9.98047 85.7706 10.4981 84.6232 11.5333C83.3132 12.7231 82.6582 14.2105 82.6582 15.9956C82.6582 17.6615 83.2372 19.0765 84.3969 20.2424C85.5566 21.4075 86.9559 21.9904 88.5948 21.9904C89.7085 21.9904 90.7277 21.7263 91.6523 21.1981C92.5769 20.6699 93.307 19.9368 93.8427 18.9988C94.3784 18.0616 94.6462 17.0529 94.6462 15.9753C94.6462 14.9039 94.3793 13.9067 93.8471 12.9827C93.315 12.0588 92.5743 11.3275 91.6249 10.7887ZM86.4052 13.6081C86.9975 12.9889 87.74 12.6789 88.631 12.6789C89.5432 12.6789 90.2919 12.9845 90.878 13.5975C91.4631 14.2096 91.7566 15.0063 91.7566 15.9859C91.7566 16.9655 91.4587 17.7675 90.8621 18.3902C90.2654 19.0138 89.5185 19.3247 88.6204 19.3247C87.7223 19.3247 86.9807 19.0173 86.3946 18.4008C85.8086 17.7851 85.516 16.9796 85.516 15.9859C85.516 15.0205 85.813 14.2273 86.4052 13.6081Z" fill="#ffffff"/>
<defs>
<linearGradient id="paint0_linear_1405_16921" x1="21.3627" y1="0.32592" x2="29.5441" y2="26.6553" gradientUnits="userSpaceOnUse">
<stop offset="0.0198" stop-color="#A75584"/>
<stop offset="0.4205" stop-color="#B6496F"/>
<stop offset="0.5737" stop-color="#BF4868"/>
<stop offset="0.819" stop-color="#D64455"/>
<stop offset="0.9056" stop-color="#E0434D"/>
</linearGradient>
<linearGradient id="paint1_linear_1405_16921" x1="-2.9648" y1="11.4166" x2="-14.3308" y2="36.3891" gradientUnits="userSpaceOnUse">
<stop offset="0.00284334" stop-color="#FFE065"/>
<stop offset="0.0241" stop-color="#FFDC54"/>
<stop offset="0.1284" stop-color="#FFC906"/>
<stop offset="0.1449" stop-color="#FEC30C"/>
<stop offset="0.26" stop-color="#F59D31"/>
<stop offset="0.3206" stop-color="#F28F3F"/>
<stop offset="0.4698" stop-color="#ED6948"/>
</linearGradient>
<linearGradient id="paint2_linear_1405_16921" x1="8.32551" y1="11.3395" x2="18.1679" y2="30.3491" gradientUnits="userSpaceOnUse">
<stop offset="0.0181" stop-color="#CF5C6C"/>
<stop offset="0.0904" stop-color="#D85F68"/>
<stop offset="0.2682" stop-color="#EB6661"/>
<stop offset="0.3956" stop-color="#F1685F"/>
<stop offset="0.6521" stop-color="#F0774F"/>
<stop offset="0.9568" stop-color="#F08441"/>
</linearGradient>
</defs>
</svg>
