<svg width="46" height="28" viewBox="0 0 46 28" fill="none" xmlns="http://www.w3.org/2000/svg">
<path fill-rule="evenodd" clip-rule="evenodd" d="M3.26531 7.9621L4.15126 10.0869H2.38442L3.26531 7.9621ZM23.0283 9.3506C23.2804 9.3506 23.4907 9.34707 23.6686 9.2408C23.8365 9.15447 23.9354 8.96703 23.9354 8.73408C23.9354 8.5058 23.8315 8.34054 23.6636 8.26289C23.5107 8.17672 23.2753 8.16675 23.0497 8.16675H21.4559V9.3506H23.0283ZM33.9907 7.9621L34.8864 10.0869H33.0998L33.9907 7.9621ZM12.6488 12.3868H13.9756V7.05685H11.8205L10.2644 10.6726L8.57039 7.05685H6.45777V12.1032L4.25629 7.05685H2.33313L0.0151905 12.3868H1.42105L1.92348 11.1979H4.61857L5.11594 12.3868H7.74863V8.20871L9.63046 12.3868H10.767L12.6439 8.21241L12.6488 12.3868ZM14.9404 12.3868H19.2645V11.2844H16.2349V10.22H19.1918V9.12747H16.2349V8.16675H19.2645V7.05685H14.9404V12.3868ZM24.4492 9.91295C24.785 9.78113 25.3613 9.34208 25.3613 8.4923C25.3613 7.8978 25.1158 7.55023 24.7063 7.31214C24.2878 7.07405 23.8004 7.05685 23.1389 7.05685H20.1617V12.3868H21.456V10.4481H22.8456C23.3116 10.4481 23.5999 10.4888 23.789 10.6762C24.0007 10.9067 23.9969 11.3025 23.994 11.6131C23.9937 11.6481 23.9933 11.6821 23.9933 11.7146L23.9982 12.3868H25.3038V11.3397C25.3038 10.8637 25.2723 10.6269 25.0895 10.3618C24.9744 10.2065 24.7325 10.0191 24.4492 9.91295ZM26.112 12.3868H27.4328V7.05685H26.112V12.3868ZM40.921 12.3868H42.7553V7.05701H41.4294V10.769L39.1541 7.05701H37.1833V12.0984L34.9918 7.05701H33.0523L31.2279 11.2486H30.6466C30.3059 11.2486 29.9438 11.1846 29.7445 10.9737C29.5039 10.7047 29.3886 10.293 29.3886 9.72197C29.3886 9.16332 29.54 8.73907 29.7607 8.51464C30.0176 8.26803 30.2843 8.1989 30.7567 8.1989H31.9836V7.05685H30.7304C29.8384 7.05685 29.1831 7.25298 28.7646 7.67836C28.2083 8.24938 28.0669 8.97201 28.0669 9.76248C28.0669 10.7317 28.3035 11.3447 28.7584 11.7972C29.2096 12.2498 30.0062 12.3868 30.6354 12.3868H32.15L32.6387 11.1979H35.3276L35.8313 12.3868H38.4675V8.38635L40.921 12.3868ZM2.21177 13.4336H0.000163339H0V9.53436L1.56756 6H4.94313L5.37793 6.87792V6H9.33596L10.2018 7.91998L11.045 6H23.6111C24.1823 6 24.696 6.10482 25.073 6.43406V6H28.5126V6.43406C29.105 6.11462 29.8384 6 30.6728 6H35.657L36.1195 6.87792V6H39.8094L40.313 6.87792V6H43.9091V13.4336H40.2755L39.5888 12.3091V13.4336H35.0543L34.5619 12.2498H33.4454L32.9419 13.4336H30.5888C29.6654 13.4336 28.9637 13.2192 28.5126 12.9813V13.4336H22.9194V11.7468C22.9194 11.5087 22.8766 11.4953 22.7301 11.4903H22.5208L22.5259 13.4336H11.7116V12.515L11.3231 13.4375H9.06417L8.67575 12.5286V13.4336H4.32423L3.82687 12.2498H2.71045L2.21177 13.4336ZM43.6603 17.7561H46V19.272C45.9944 19.2649 45.9889 19.2578 45.9835 19.2507C45.9539 19.2123 45.9248 19.1744 45.8809 19.1401C45.5952 18.8482 45.1265 18.7285 44.4244 18.7113L43.7287 18.6929C43.5149 18.6929 43.3694 18.6792 43.234 18.6324C43.0676 18.5733 42.9532 18.4366 42.9532 18.2356C42.9532 18.0666 43.0054 17.9386 43.1408 17.8523C43.2715 17.7648 43.4267 17.7561 43.6603 17.7561ZM44.2579 21.95C45.0805 21.95 45.6882 21.7207 46 21.2685V22.6533C45.4857 22.8998 44.8097 22.996 44.1175 22.996H40.7911V22.5203C40.4057 22.827 39.7098 22.996 39.044 22.996H28.5571V21.2779C28.5571 21.0673 28.5362 21.0587 28.3237 21.0587H28.1572V22.9961H24.7051V20.9899C24.1272 21.2376 23.4723 21.2598 22.917 21.2513H22.5055V23L18.3202 22.9963L17.2912 21.8406L16.1989 22.9963H9.40909V15.5625H16.3292L17.322 16.7003L18.3821 15.5625H23.0147C23.5502 15.5625 24.4289 15.6181 24.824 15.9976V15.5625H28.9632C29.3522 15.5625 30.1949 15.6403 30.6943 15.9976V15.5625H36.9696V15.9976C37.2816 15.7007 37.9413 15.5625 38.5032 15.5625H42.0174V15.9976C42.3862 15.7328 42.907 15.5625 43.624 15.5625H45.9998V16.6225H43.4428C42.0956 16.6225 41.6009 17.4359 41.6009 18.2086C41.6009 19.7843 42.9144 19.8196 44.0702 19.8506C44.1511 19.8528 44.2312 19.8549 44.3101 19.8576C44.5336 19.8576 44.6692 19.8945 44.7624 19.9758C44.8568 20.0497 44.9192 20.173 44.9192 20.3282C44.9192 20.4735 44.8568 20.5932 44.7674 20.6757C44.6642 20.7756 44.4928 20.8075 44.2479 20.8075H41.7788V21.95H44.2579ZM41.2631 20.2689C41.2631 19.7206 41.1292 19.3967 40.8792 19.1401C40.5884 18.848 40.1101 18.7285 39.4132 18.7116L38.7221 18.6932C38.5034 18.6932 38.3579 18.6795 38.2225 18.6328C38.061 18.5736 37.9416 18.4369 37.9416 18.236C37.9416 18.0669 37.9938 17.9389 38.1344 17.8526C38.2635 17.7651 38.4153 17.7564 38.6487 17.7564H41.0036V16.6225H38.43C37.0842 16.6225 36.5946 17.4359 36.5946 18.2086C36.5946 19.7842 37.9076 19.8196 39.0594 19.8506C39.1401 19.8528 39.22 19.8549 39.2986 19.8576C39.5222 19.8576 39.6576 19.8945 39.7558 19.9758C39.8439 20.0497 39.9124 20.173 39.9124 20.3282C39.9124 20.4735 39.8491 20.5932 39.7608 20.6757C39.6526 20.7756 39.4799 20.8075 39.2364 20.8075H36.7461V21.95H39.2465C40.5411 21.95 41.2631 21.415 41.2631 20.2689ZM28.6614 18.9208C28.9112 18.9208 29.1236 18.9121 29.2953 18.8111C29.4617 18.7113 29.5612 18.5277 29.5612 18.2997C29.5612 18.0718 29.4617 17.9068 29.2953 17.8205C29.14 17.7291 28.9112 17.7243 28.6827 17.7243H27.1019V18.9208H28.6614ZM30.6995 19.9214C30.59 19.7662 30.3564 19.5787 30.0706 19.4741C30.4086 19.3411 30.9804 18.9072 30.9806 18.0568C30.9806 17.4491 30.7257 17.1165 30.3206 16.8738C29.8992 16.6508 29.4259 16.6223 28.776 16.6223H25.8121V21.95H27.1021V20.0041H28.474C28.9423 20.0041 29.2283 20.0497 29.4159 20.2406C29.6306 20.4636 29.6269 20.8704 29.624 21.1832C29.6237 21.2179 29.6234 21.2514 29.6234 21.2834V21.95H30.9122V20.8938C30.907 20.4242 30.8808 20.1815 30.6995 19.9214ZM35.9769 16.6223H31.6924V21.95H35.9769V20.8445L32.9708 20.8397V19.7797H35.9036V18.6927H32.9708V17.7241H35.9769V16.6223ZM21.372 19.081H23.031C23.5243 19.081 23.8311 18.8382 23.8311 18.3775C23.8311 17.9116 23.5094 17.7243 23.0459 17.7243H21.372V19.081ZM18.1224 19.2953L20.0934 21.4654V17.1941L18.1224 19.2953ZM11.8471 20.8397H15.0034L16.4698 19.2767L15.0656 17.7241H11.8471V18.6927H14.6655V19.7797H11.8471V20.8397ZM22.9738 20.163C24.096 20.163 25.2094 19.8574 25.2094 18.3775C25.2094 16.902 24.0647 16.6223 23.0459 16.6223H18.9439L17.311 18.3687L15.7316 16.6223H10.5683V21.95H15.6533L17.2961 20.1863L18.8768 21.95H21.372V20.163H22.9738Z" fill="#0072CE"/>
</svg>
