<svg width="22" height="22" viewBox="0 0 22 22" fill="none" xmlns="http://www.w3.org/2000/svg">
<path fill-rule="evenodd" clip-rule="evenodd" d="M3 7.19545C3 7.51992 3.11543 7.80171 3.35516 8.02372L10.0144 14.5731C10.3074 14.8719 10.6271 15 11 15C11.3818 15 11.6926 14.8719 11.9856 14.5731L18.6448 8.02372C18.8846 7.80171 19 7.52846 19 7.19545C19 6.53795 18.4495 6 17.7658 6C17.4284 6 17.1176 6.13662 16.869 6.37571L11.0089 12.1822L5.13097 6.37571C4.89123 6.13662 4.58047 6 4.23418 6C3.5505 6 3 6.53795 3 7.19545Z" fill="#DDDDDD"/>
</svg>
