<svg width="7" height="12" viewBox="0 0 7 12" fill="none" xmlns="http://www.w3.org/2000/svg">
<path d="M6.25343 12C6.39141 12 6.51707 11.9699 6.63041 11.9096C6.74375 11.8494 6.83369 11.7627 6.90021 11.6494C6.96674 11.5361 7 11.4145 7 11.2843C7 11.0867 6.92362 10.9133 6.77086 10.7639L1.78141 6L6.77086 1.23614C6.92362 1.08675 7 0.913253 7 0.715663C7 0.580723 6.96674 0.457831 6.90021 0.346988C6.83369 0.236145 6.74375 0.150602 6.63041 0.0903614C6.51707 0.0301205 6.39141 0 6.25343 0C6.04646 0 5.87152 0.0674699 5.72862 0.20241L0.243928 5.45783C0.155227 5.53494 0.092397 5.61807 0.0554382 5.70723C0.0184794 5.79639 0 5.89398 0 6C0 6.10602 0.0184794 6.20361 0.0554382 6.29277C0.092397 6.38193 0.155227 6.46506 0.243928 6.54217L5.72862 11.7976C5.87152 11.9325 6.04646 12 6.25343 12Z" fill="#4A4A4A"/>
</svg>
