<svg width="22" height="23" viewBox="0 0 22 23" fill="none" xmlns="http://www.w3.org/2000/svg">
<path fill-rule="evenodd" clip-rule="evenodd" d="M7 10.1641C7 10.3444 7.05771 10.5009 7.17758 10.6243L10.5072 14.2628C10.6537 14.4288 10.8135 14.5 11 14.5C11.1909 14.5 11.3463 14.4288 11.4928 14.2628L14.8224 10.6243C14.9423 10.5009 15 10.3491 15 10.1641C15 9.79886 14.7248 9.5 14.3829 9.5C14.2142 9.5 14.0588 9.5759 13.9345 9.70873L11.0044 12.9345L8.06548 9.70873C7.94562 9.5759 7.79023 9.5 7.61709 9.5C7.27525 9.5 7 9.79886 7 10.1641Z" fill="white"/>
</svg>
