<svg width="22" height="22" viewBox="0 0 22 22" fill="none" xmlns="http://www.w3.org/2000/svg">
<path fill-rule="evenodd" clip-rule="evenodd" d="M3 13.8046C3 13.4801 3.11543 13.1983 3.35516 12.9763L10.0144 6.42694C10.3074 6.12808 10.6271 6 11 6C11.3818 6 11.6926 6.12808 11.9856 6.42694L18.6448 12.9763C18.8846 13.1983 19 13.4715 19 13.8046C19 14.462 18.4495 15 17.7658 15C17.4284 15 17.1176 14.8634 16.869 14.6243L11.0089 8.81784L5.13097 14.6243C4.89123 14.8634 4.58047 15 4.23418 15C3.5505 15 3 14.462 3 13.8046Z" fill="#4A4A4A"/>
</svg>
