<svg width="7" height="12" viewBox="0 0 7 12" fill="none" xmlns="http://www.w3.org/2000/svg">
<path d="M0.746568 12C0.608589 12 0.482929 11.9699 0.369588 11.9096C0.256248 11.8494 0.166315 11.7627 0.0997887 11.6494C0.0332627 11.5361 0 11.4145 0 11.2843C0 11.0867 0.0763817 10.9133 0.229145 10.7639L5.21859 6L0.229145 1.23614C0.0763817 1.08675 0 0.913253 0 0.715663C0 0.580723 0.0332627 0.457831 0.0997887 0.346988C0.166315 0.236145 0.256248 0.150602 0.369588 0.0903614C0.482929 0.0301205 0.608589 0 0.746568 0C0.953537 0 1.12848 0.0674699 1.27138 0.20241L6.75607 5.45783C6.84477 5.53494 6.9076 5.61807 6.94456 5.70723C6.98152 5.79639 7 5.89398 7 6C7 6.10602 6.98152 6.20361 6.94456 6.29277C6.9076 6.38193 6.84477 6.46506 6.75607 6.54217L1.27138 11.7976C1.12848 11.9325 0.953537 12 0.746568 12Z" fill="#4A4A4A"/>
</svg>
