<svg width="149" height="44" viewBox="0 0 149 44" fill="none" xmlns="http://www.w3.org/2000/svg">
<rect width="149" height="44" rx="7.45763" fill="black"/>
<path fill-rule="evenodd" clip-rule="evenodd" d="M91.0863 32.3225C89.2392 32.3225 87.8875 31.403 87.7319 30.0024L85.5824 30.0023C85.7181 32.5568 87.819 34.1728 90.9307 34.1728C94.2565 34.1728 96.3475 32.5179 96.3475 29.8757C96.3475 27.81 95.1514 26.646 92.2725 25.9608L90.7266 25.5787C88.9181 25.1289 88.1788 24.5414 88.1788 23.543C88.1788 22.2902 89.3363 21.4294 91.0278 21.4294C92.7194 21.4294 93.8769 22.2802 94.0038 23.6896H96.1235C96.0551 21.2528 94.0225 19.5791 91.0576 19.5791C88.0618 19.5791 85.9521 21.2528 85.9521 23.6896C85.9521 25.6576 87.1482 26.8704 89.7247 27.4968L91.5432 27.9377C93.3616 28.3876 94.1296 29.0439 94.1296 30.1401C94.1296 31.4029 92.8562 32.3225 91.0863 32.3225ZM54.5031 30.1202H49.1547L47.8703 33.9374H45.605L50.6708 19.8146H53.0245L58.0903 33.9374H55.7864L54.5031 30.1202ZM49.7086 28.3587H53.9481L51.8582 22.1636H51.7997L49.7086 28.3587ZM69.0309 28.7896C69.0309 31.9894 67.3294 34.0452 64.7617 34.0452C63.4345 34.115 62.1843 33.4153 61.543 32.2437H61.4944V37.3437H59.3946V23.6407H61.4271V25.3533H61.4657C62.1356 24.189 63.3871 23.4896 64.7231 23.533C67.3194 23.533 69.0309 25.5988 69.0309 28.7896ZM66.8726 28.7896C66.8726 26.705 65.8022 25.3345 64.1691 25.3345C62.5648 25.3345 61.4856 26.7339 61.4856 28.7896C61.4856 30.8643 62.5648 32.2537 64.1691 32.2537C65.8022 32.2537 66.8726 30.8932 66.8726 28.7896ZM76.0211 34.0452C78.5888 34.0452 80.2903 31.9894 80.2903 28.7896C80.2903 25.5988 78.5789 23.533 75.9825 23.533C74.6465 23.4896 73.395 24.189 72.7251 25.3533H72.6865V23.6407H70.654V37.3437H72.7538V32.2437H72.8024C73.4438 33.4153 74.6939 34.115 76.0211 34.0452ZM75.4286 25.3345C77.0617 25.3345 78.132 26.705 78.132 28.7896C78.132 30.8932 77.0617 32.2537 75.4286 32.2537C73.8242 32.2537 72.745 30.8643 72.745 28.7896C72.745 26.7339 73.8242 25.3345 75.4286 25.3345ZM100.879 21.204V23.6407H102.825V25.3145H100.879V30.9909C100.879 31.8728 101.269 32.2837 102.124 32.2837C102.355 32.2796 102.585 32.2633 102.815 32.2348V33.8985C102.43 33.9708 102.039 34.0036 101.648 33.9963C99.5773 33.9963 98.7695 33.2133 98.7695 31.2163V25.3145H97.2821V23.6407H98.7695V21.204H100.879ZM103.951 28.7896C103.951 25.5499 105.847 23.5141 108.803 23.5141C111.769 23.5141 113.656 25.5499 113.656 28.7896C113.656 32.0383 111.779 34.0652 108.803 34.0652C105.828 34.0652 103.951 32.0382 103.951 28.7896ZM111.516 28.7896C111.516 26.5673 110.505 25.2556 108.803 25.2556C107.102 25.2556 106.091 26.5773 106.091 28.7896C106.091 31.0209 107.102 32.3226 108.803 32.3226C110.505 32.3226 111.516 31.0209 111.516 28.7896ZM115.387 23.6407H117.39V25.3933H117.439C117.718 24.2651 118.745 23.4886 119.899 23.533C120.141 23.5321 120.383 23.5586 120.619 23.6119V25.5888C120.313 25.4948 119.994 25.4517 119.675 25.4611C119.058 25.4359 118.46 25.6835 118.04 26.1389C117.619 26.5944 117.417 27.2122 117.487 27.83V33.9374H115.387L115.387 23.6407ZM130.3 30.9132C130.018 32.7824 128.209 34.0651 125.895 34.0651C122.919 34.0651 121.072 32.0582 121.072 28.8385C121.072 25.6088 122.929 23.5141 125.807 23.5141C128.637 23.5141 130.417 25.4711 130.417 28.5931V29.3172H123.192V29.4449C123.124 30.2115 123.387 30.9703 123.914 31.5283C124.44 32.0863 125.18 32.3897 125.944 32.3614C126.963 32.4575 127.924 31.8686 128.306 30.9132L130.3 30.9132ZM123.202 27.8401L128.316 27.84C128.354 27.1512 128.105 26.4776 127.629 25.9816C127.153 25.4855 126.492 25.2119 125.807 25.2267C125.116 25.2226 124.453 25.4963 123.963 25.987C123.474 26.4778 123.2 27.1449 123.202 27.8401Z" fill="white"/>
<path fill-rule="evenodd" clip-rule="evenodd" d="M74.3741 8.71582H73.3716V16.0529H74.3741V8.71582ZM51.7541 10.0188C51.1405 9.34578 50.2688 8.99401 49.3787 9.06036H46.9473V16.053H49.3787C51.3838 16.053 52.5461 14.7689 52.5461 12.5349C52.6583 11.6153 52.3677 10.6919 51.7541 10.0188ZM49.2619 15.0641H47.9928V10.0485H49.2619C49.8946 10.0121 50.5099 10.2712 50.9395 10.7551C51.3691 11.239 51.568 11.897 51.4819 12.5491C51.5747 13.204 51.3786 13.8675 50.948 14.3554C50.5173 14.8432 49.898 15.1036 49.2619 15.0641ZM54.8538 11.0498C54.0766 11.5508 53.64 12.4662 53.7271 13.4121C53.6384 14.359 54.0746 15.2761 54.8525 15.7782C55.6304 16.2803 56.6152 16.2803 57.3931 15.7782C58.171 15.2761 58.6072 14.359 58.5184 13.4121C58.6055 12.4662 58.1689 11.5508 57.3917 11.0498C56.6145 10.5488 55.6311 10.5488 54.8538 11.0498ZM56.1244 11.5993C56.9926 11.5993 57.4872 12.2682 57.4872 13.4121H57.4872C57.4872 14.5605 56.9926 15.2289 56.1244 15.2289C55.253 15.2289 54.7628 14.5651 54.7628 13.4121C54.7628 12.2682 55.253 11.5993 56.1244 11.5993ZM63.8474 16.0529H64.8874L66.2821 10.7758H65.2796L64.374 14.8025H64.2947L63.2503 10.7758H62.2885L61.2441 14.8025H61.1691L60.2591 10.7758H59.2423L60.6425 16.0529H61.6726L62.7181 12.1663H62.7975L63.8474 16.0529ZM67.4599 10.7758H68.4249V11.6141H68.4999C68.7604 10.9969 69.3692 10.6194 70.0158 10.674C70.5165 10.6349 71.0071 10.8344 71.3492 11.2162C71.6912 11.598 71.8476 12.1207 71.7741 12.6367V16.0528H70.7716V12.8982C70.7716 12.0502 70.4168 11.6284 69.6754 11.6284C69.3358 11.612 69.0062 11.7505 68.773 12.0075C68.5399 12.2645 68.4264 12.6145 68.4624 12.9657V16.0529H67.4598L67.4599 10.7758ZM76.8947 11.0497C76.1174 11.5507 75.6807 12.4661 75.7678 13.4121C75.6791 14.359 76.1154 15.2761 76.8934 15.7782C77.6713 16.2803 78.6561 16.2803 79.4341 15.7782C80.212 15.2761 80.6483 14.359 80.5596 13.4121C80.6467 12.4661 80.21 11.5507 79.4327 11.0497C78.6555 10.5487 77.672 10.5487 76.8947 11.0497ZM78.1651 11.5993C79.0332 11.5993 79.5279 12.2682 79.5279 13.4121C79.5279 14.5605 79.0332 15.2289 78.1651 15.2289C77.2937 15.2289 76.8034 14.5651 76.8034 13.4121C76.8034 12.2682 77.2936 11.5993 78.1651 11.5993ZM81.6151 14.5605C81.6151 13.6106 82.2959 13.063 83.5045 12.9852L84.8805 12.9028V12.4473C84.8805 11.89 84.5258 11.5752 83.8405 11.5752C83.2809 11.5752 82.8931 11.7887 82.7818 12.1618H81.8112C81.9136 11.2554 82.7344 10.674 83.8868 10.674C85.1604 10.674 85.8787 11.3326 85.8787 12.4473V16.0529H84.9136V15.3113H84.8343C84.5065 15.8529 83.9236 16.1694 83.3084 16.1398C82.8771 16.1864 82.447 16.0413 82.1244 15.7404C81.8018 15.4395 81.6168 15.0109 81.6151 14.5605ZM84.8805 14.1096V13.6684L83.64 13.7508C82.9404 13.7995 82.6231 14.0467 82.6231 14.5119C82.6231 14.9868 83.0197 15.2632 83.5651 15.2632C83.888 15.2972 84.2103 15.1935 84.4582 14.9761C84.7062 14.7586 84.8586 14.4459 84.8805 14.1096ZM89.3049 10.6883C88.0215 10.6883 87.1963 11.7446 87.1963 13.4121C87.1963 15.0835 88.0127 16.1399 89.305 16.1398C89.9601 16.1649 90.5746 15.8103 90.9002 15.2191H90.9795V16.0529H91.9402V8.71582H90.9377V11.6141H90.8628C90.56 11.018 89.953 10.6573 89.3049 10.6883ZM89.5892 15.2049C88.7398 15.2049 88.2319 14.5313 88.2319 13.4121H88.2319C88.2319 12.302 88.7453 11.6239 89.5892 11.6239C90.4287 11.6239 90.9564 12.3168 90.9564 13.4167C90.9564 14.5216 90.4342 15.2049 89.5892 15.2049ZM96.0881 13.4121C96.001 12.4662 96.4376 11.5508 97.2148 11.0498C97.9921 10.5488 98.9755 10.5488 99.7527 11.0498C100.53 11.5508 100.967 12.4662 100.879 13.4121C100.968 14.359 100.532 15.2761 99.7541 15.7782C98.9762 16.2803 97.9914 16.2803 97.2135 15.7782C96.4356 15.2761 95.9994 14.359 96.0881 13.4121ZM99.8482 13.4121C99.8482 12.2682 99.3536 11.5993 98.4854 11.5993C97.614 11.5993 97.1238 12.2682 97.1238 13.4121C97.1238 14.5651 97.614 15.2289 98.4854 15.2289C99.3536 15.2289 99.8482 14.5605 99.8482 13.4121ZM102.225 10.7758H103.19V11.6141H103.265C103.525 10.9969 104.134 10.6194 104.781 10.674C105.281 10.6349 105.772 10.8344 106.114 11.2162C106.456 11.598 106.612 12.1207 106.539 12.6367V16.0528H105.536V12.8982C105.536 12.0502 105.182 11.6284 104.44 11.6284C104.101 11.612 103.771 11.7505 103.538 12.0075C103.305 12.2645 103.191 12.6145 103.227 12.9657V16.0529H102.225V10.7758ZM112.204 10.7999V9.46201H111.2V10.7998H110.394V11.677H111.2V14.6572C111.2 15.6746 111.644 16.0821 112.759 16.0821C112.942 16.0801 113.124 16.0623 113.304 16.0288V15.1614C113.178 15.1769 113.05 15.185 112.922 15.1854C112.423 15.1854 112.204 14.9433 112.204 14.3906V11.6771H113.304V10.7999H112.204ZM114.674 8.71582H115.668V11.6239H115.747C116.02 11.0012 116.639 10.6232 117.296 10.6786C117.794 10.6504 118.278 10.8543 118.616 11.2348C118.954 11.6152 119.112 12.1325 119.045 12.6459V16.0529H118.042V12.9028C118.042 12.0599 117.664 11.633 116.956 11.633C116.607 11.6033 116.263 11.735 116.016 11.9929C115.77 12.2509 115.645 12.6088 115.676 12.9709V16.0529H114.674L114.674 8.71582ZM124.891 14.628C124.61 15.6234 123.683 16.2666 122.69 16.1547C122.012 16.1733 121.361 15.8816 120.91 15.3571C120.458 14.8326 120.251 14.1282 120.343 13.431C120.253 12.7317 120.459 12.0262 120.909 11.4973C121.358 10.9683 122.006 10.668 122.685 10.674C124.099 10.674 124.952 11.6771 124.952 13.3342V13.6976H121.364V13.756C121.333 14.1476 121.461 14.5349 121.719 14.8227C121.977 15.1105 122.339 15.2721 122.717 15.2678C123.208 15.3289 123.685 15.0762 123.926 14.628L124.891 14.628ZM121.364 12.9274H123.93C123.956 12.5693 123.835 12.2166 123.597 11.9562C123.358 11.6959 123.025 11.5521 122.68 11.5604C122.33 11.5558 121.992 11.6984 121.745 11.9557C121.497 12.2131 121.36 12.5635 121.364 12.9274Z" fill="white"/>
<path fill-rule="evenodd" clip-rule="evenodd" d="M32.8647 9.17188C32.9741 10.6097 32.5223 12.0338 31.6054 13.1417C30.7158 14.2554 29.3678 14.8969 27.9481 14.8822C27.8578 13.4858 28.3227 12.1105 29.2404 11.0593C30.1697 9.99388 31.4638 9.31997 32.8647 9.17188ZM37.3546 17.62C35.7215 18.6306 34.7166 20.4128 34.6919 22.3421C34.6942 24.525 35.993 26.4949 37.9904 27.3453C37.6063 28.6013 37.0272 29.7883 36.2747 30.8623C35.2641 32.3839 34.2046 33.8704 32.5228 33.8979C31.723 33.9165 31.1831 33.685 30.6205 33.4438C30.0337 33.1922 29.4222 32.93 28.4653 32.93C27.4504 32.93 26.8116 33.2006 26.1954 33.4616C25.6629 33.6872 25.1474 33.9056 24.4209 33.9359C22.8193 33.9956 21.5952 32.3119 20.5479 30.8046C18.4546 27.7264 16.8246 22.1297 19.0099 18.3216C20.036 16.4656 21.9547 15.2878 24.0639 15.2192C24.9723 15.2004 25.8439 15.5528 26.6081 15.8618C27.1925 16.0981 27.7141 16.3089 28.1412 16.3089C28.5167 16.3089 29.0237 16.1064 29.6146 15.8703C30.5454 15.4985 31.6843 15.0435 32.8449 15.1661C34.6484 15.2229 36.3197 16.1324 37.3546 17.62Z" fill="white"/>
</svg>
