<svg width="22" height="22" viewBox="0 0 22 22" fill="none" xmlns="http://www.w3.org/2000/svg">
<path fill-rule="evenodd" clip-rule="evenodd" d="M14.7012 3C14.9167 3 15.0915 3.17472 15.0915 3.39024V6.70732C15.0915 6.92285 14.9167 7.09757 14.7012 7.09757C14.4857 7.09757 14.311 6.92285 14.311 6.70732V3.39024C14.311 3.17472 14.4857 3 14.7012 3ZM7.28658 3C7.50211 3 7.67682 3.17472 7.67682 3.39024V6.70732C7.67682 6.92285 7.50211 7.09757 7.28658 7.09757C7.07104 7.09757 6.89633 6.92285 6.89633 6.70732V3.39024C6.89633 3.17472 7.07104 3 7.28658 3ZM17.4329 4.17073C18.3004 4.17073 19 4.87033 19 5.73781V9.24391H3V5.73781C3 4.87033 3.69961 4.17073 4.56706 4.17073H5.73171H6.50609V5.83537C6.26675 6.04973 6.11584 6.36074 6.11584 6.70732C6.11584 7.3539 6.64 7.87806 7.28658 7.87806C7.93315 7.87806 8.45731 7.3539 8.45731 6.70732C8.45731 6.36074 8.3064 6.04973 8.06706 5.83537V4.17073H13.9268V5.82927C13.6838 6.04379 13.5305 6.35765 13.5305 6.70732C13.5305 7.3539 14.0546 7.87806 14.7012 7.87806C15.3478 7.87806 15.8719 7.3539 15.8719 6.70732C15.8719 6.36383 15.7234 6.05563 15.4878 5.84147V4.17073H17.4329ZM19 10.0244V17.4329C19 18.3004 18.3004 19 17.4329 19H4.56706C3.69961 19 3 18.3004 3 17.4329V10.0244L19 10.0244Z" fill="#4A4A4A"/>
</svg>
