<svg width="22" height="22" viewBox="0 0 22 22" fill="none" xmlns="http://www.w3.org/2000/svg">
<path fill-rule="evenodd" clip-rule="evenodd" d="M3.88308 19C3.39522 19 3 18.6045 3 18.1169V3.88307C3 3.39528 3.39529 3 3.88308 3H18.117C18.6047 3 19 3.39528 19 3.88307V18.1169C19 18.6046 18.6046 19 18.117 19H14.0398V12.8039H16.1195L16.4309 10.3892H14.0398V8.84755C14.0398 8.14843 14.2339 7.672 15.2364 7.672L16.5151 7.67144V5.5117C16.294 5.48227 15.5349 5.41652 14.6519 5.41652C12.8083 5.41652 11.5461 6.54184 11.5461 8.6084V10.3892H9.46104V12.8039H11.5461V19H3.88308Z" fill="#4A5F9B"/>
<mask id="mask0_1_4018" style="mask-type:luminance" maskUnits="userSpaceOnUse" x="3" y="3" width="16" height="16">
<path fill-rule="evenodd" clip-rule="evenodd" d="M3.88308 19C3.39522 19 3 18.6045 3 18.1169V3.88307C3 3.39528 3.39529 3 3.88308 3H18.117C18.6047 3 19 3.39528 19 3.88307V18.1169C19 18.6046 18.6046 19 18.117 19H14.0398V12.8039H16.1195L16.4309 10.3892H14.0398V8.84755C14.0398 8.14843 14.2339 7.672 15.2364 7.672L16.5151 7.67144V5.5117C16.294 5.48227 15.5349 5.41652 14.6519 5.41652C12.8083 5.41652 11.5461 6.54184 11.5461 8.6084V10.3892H9.46104V12.8039H11.5461V19H3.88308Z" fill="white"/>
</mask>
<g mask="url(#mask0_1_4018)">
</g>
</svg>
