<svg width="22" height="22" viewBox="0 0 22 22" fill="none" xmlns="http://www.w3.org/2000/svg">
<path fill-rule="evenodd" clip-rule="evenodd" d="M11.0954 5.29433C10.8878 5.39861 11.1992 5.5029 11.4067 5.60719C11.9257 5.92005 11.6143 4.98146 11.0954 5.29433V5.29433ZM10.8878 4.46003C11.1992 4.56431 12.3408 5.39861 11.4067 5.08575C11.4067 4.98146 10.0575 4.46003 10.4727 4.35574C10.5764 4.35574 10.784 4.35574 10.8878 4.46003V4.46003ZM9.01964 4.56431C9.01964 4.56431 9.01964 4.46003 8.91585 4.35574C8.70828 4.35574 8.91585 4.25145 9.22721 4.25145C9.53857 4.35574 9.64236 4.25145 9.53857 4.6686C9.53857 4.87718 8.91585 4.77289 8.91585 4.77289C8.91585 4.6686 9.01964 4.6686 9.01964 4.56431V4.56431ZM9.64236 4.04288C9.84993 4.04288 9.22721 3.8343 9.331 4.04288C9.43479 4.14716 9.53857 4.14716 9.64236 4.04288V4.04288ZM9.95372 4.35574C9.95372 4.14716 9.74615 4.35574 9.95372 4.35574V4.35574ZM10.2651 3.93859C10.4727 4.14716 10.3689 4.25145 10.2651 4.04288C10.1613 3.93859 10.1613 3.8343 10.2651 3.93859V3.93859ZM13.0673 7.69294C13.4825 7.79723 12.756 7.1715 12.756 7.1715C12.756 7.1715 12.6522 7.48436 12.6522 7.58865C12.756 7.69294 12.8598 7.58865 13.0673 7.69294V7.69294ZM10.8878 11.343C10.9916 11.343 11.5105 11.343 11.0954 11.1344C10.8878 11.1344 10.3689 10.8216 10.1613 10.9259C10.2651 11.0301 10.5764 10.9259 10.8878 11.2387V11.343ZM11.6143 11.4473C11.6143 11.4473 12.1332 11.4473 11.8219 11.343C11.5105 11.2387 11.1992 11.5516 11.6143 11.4473V11.4473ZM16.1809 6.75435C16.1809 6.54578 15.7658 6.12863 15.7658 6.02434C15.7658 5.92005 16.4923 6.54578 16.3885 6.85864C16.3885 7.06721 16.1809 6.75435 16.1809 6.75435V6.75435ZM15.8696 6.65006C15.8696 6.85864 16.1809 6.75435 15.9734 6.54578C15.8696 6.44149 15.8696 6.54578 15.8696 6.65006V6.65006ZM14.6241 5.29433C14.4166 5.39861 13.8976 4.98146 14.209 5.08575C14.4166 5.08575 14.7279 5.08575 14.6241 5.29433V5.29433ZM12.3408 11.5516C12.4446 11.4473 12.1332 11.2387 12.237 11.4473C12.237 11.5516 12.237 11.5516 12.3408 11.5516V11.5516ZM16.8037 8.31866C17.0112 8.63153 17.2188 8.73581 17.2188 8.31866V7.69294C17.3226 7.48436 17.4264 7.69294 17.5302 7.90151C18.1529 8.63153 17.7377 7.90151 17.5302 7.69294C17.3226 7.48436 17.5302 7.48436 17.5302 7.48436C17.2188 6.96293 16.4923 5.60719 16.5961 7.1715C16.5961 7.48436 16.9074 7.38008 16.6999 7.79723C16.5961 8.0058 16.6999 8.11009 16.8037 8.31866V8.31866ZM17.115 11.9687C17.3226 12.3859 17.3226 12.4902 17.6339 12.2816C17.8415 12.1773 17.8415 11.8644 18.1529 12.1773C18.3605 12.2816 18.1529 12.4902 18.1529 12.6987C18.1529 13.3245 18.3605 11.7602 18.3605 11.7602C18.4642 10.9259 18.3605 9.88298 18.1529 9.04868C18.0491 8.73581 17.9453 8.94439 17.8415 8.63153C17.7377 8.42295 17.6339 8.42295 17.4264 8.52724C17.3226 8.73581 17.5302 8.73581 17.2188 8.73581C17.0112 8.73581 17.0112 9.57011 17.0112 9.77869C16.8037 10.4044 16.8037 10.1958 16.9074 10.8216C16.9074 11.6559 16.6999 11.2387 17.115 11.9687V11.9687ZM10.5764 3.93859C10.784 4.14716 10.9916 3.8343 11.0954 3.62573C11.1992 3.41715 10.8878 3.52144 10.784 3.62573C10.4727 3.73001 10.3689 3.52144 10.5764 3.8343V3.93859ZM12.9635 5.60719C13.1711 5.81576 13.4825 6.02434 13.3787 5.60719C13.2749 4.98146 13.3787 5.29433 13.4825 5.08575C13.5863 4.87718 13.8976 4.77289 13.5863 4.6686C13.2749 4.35574 13.2749 4.14716 12.756 3.8343C12.4446 3.62573 11.5105 3.41715 11.1992 3.73001C11.0954 3.93859 11.6143 4.14716 11.8219 4.25145C12.5484 4.77289 12.4446 5.08575 12.9635 5.60719V5.60719ZM16.0771 5.81576C16.2847 6.02434 16.0771 5.81576 16.3885 6.02434C16.5961 6.23291 16.2847 5.81576 16.2847 5.81576C16.2847 5.81576 15.3506 4.87718 15.662 5.39861C15.7658 5.60719 15.8696 5.71148 16.0771 5.81576V5.81576ZM11.8219 12.3859C11.6143 12.2816 11.5105 12.4902 11.5105 12.2816C11.5105 12.073 10.9916 12.5945 10.9916 12.5945H10.6802H10.5764C10.3689 12.5945 10.2651 12.5945 10.1613 12.3859C10.0575 12.073 10.4727 11.8644 9.84993 11.7602C9.53857 11.7602 9.64236 11.5516 9.74615 11.343C9.84993 11.1344 9.84993 11.0301 9.64236 11.0301C9.43479 11.1344 9.331 11.6559 9.01964 11.4473C8.39692 11.1344 8.60449 9.6744 9.43479 10.0916C9.74615 10.1958 9.331 9.77869 10.1613 9.98726C10.4727 10.0916 10.2651 10.5087 10.5764 10.5087C10.784 10.613 10.4727 9.98726 10.4727 9.88298C10.5764 9.57011 11.1992 9.46583 10.9916 9.04868V8.8401C11.0954 8.73581 10.9916 9.15296 11.1992 8.73581C11.4067 8.42295 11.5105 8.63153 11.6143 8.31866C11.6143 8.11009 12.1332 7.79723 12.1332 8.0058C12.0295 8.21438 12.4446 7.90151 12.4446 7.90151C12.3408 7.79723 12.1332 7.79723 12.1332 7.58865C11.9257 7.27579 11.6143 7.79723 11.6143 7.69294C11.5105 7.48436 12.0295 7.38008 12.1332 7.27579C13.1711 7.06721 12.6522 6.85864 12.1332 6.3372C11.6143 5.71148 11.8219 6.44149 11.5105 6.02434C11.0954 5.5029 10.784 5.71148 10.8878 6.3372C10.9916 6.44149 10.9916 6.54578 10.784 6.65006V6.85864C10.784 7.27579 10.5764 7.38008 10.5764 6.85864C10.5764 6.54578 10.3689 6.75435 10.0575 6.54578C9.64236 6.3372 9.331 6.23291 9.84993 5.71148C10.2651 5.29433 10.5764 5.71148 10.5764 5.19004C10.5764 4.87718 10.6802 4.87718 10.4727 4.98146C10.1613 4.98146 10.1613 4.46003 9.95372 4.77289C9.64236 4.98146 9.53857 4.98146 9.22721 4.98146C8.70828 5.08575 8.81207 4.6686 8.18934 4.6686C7.67041 4.77289 7.7742 4.56431 7.46284 4.56431C6.9439 4.56431 6.9439 4.98146 6.63254 4.98146C6.32118 5.08575 6.52875 5.08575 6.32118 5.29433C6.11361 5.39861 5.80225 5.60719 5.90603 5.92005C6.00982 6.02434 4.97195 6.3372 5.49089 6.23291C6.11361 6.12863 6.11361 5.81576 6.42497 5.71148C6.84011 5.60719 6.84011 6.23291 6.84011 6.54578C6.84011 6.65006 6.84011 6.75435 6.9439 6.96293C7.04769 7.58865 6.9439 7.1715 6.84011 7.1715C6.84011 7.1715 6.84011 7.48436 6.73633 7.69294C6.63254 8.0058 6.42497 8.42295 6.63254 8.73581C6.73633 8.8401 6.73633 9.04868 6.84011 9.25725C6.9439 9.57011 6.9439 9.6744 7.04769 10.0916C7.04769 10.3001 7.15148 10.3001 7.25526 10.5087C7.25526 10.613 7.46284 10.9259 7.35905 10.5087C7.15148 9.77869 7.04769 9.36154 7.46284 10.3001C7.67041 10.613 7.7742 10.7173 7.87798 11.0301C7.98177 11.343 8.39692 11.6559 8.81207 11.6559C9.12343 11.7602 9.12343 11.8644 9.53857 11.9687C10.0575 12.1773 9.74615 12.3859 10.0575 12.5945C10.3689 12.803 10.2651 12.803 10.5764 12.6987C11.0954 12.803 10.8878 13.2202 10.6802 13.533C10.3689 13.9502 10.6802 13.8459 10.5764 13.9502C10.4727 14.2631 10.6802 14.5759 10.8878 14.7845C11.5105 15.7231 11.8219 15.5145 11.5105 16.8702C11.4067 17.1831 10.9916 18.0174 11.3029 18.226C11.3029 18.226 11.7181 18.4346 11.6143 18.3303C11.6143 18.1217 11.7181 17.9131 11.8219 17.7045C12.0295 17.3917 11.8219 17.6003 12.237 17.3917C12.3408 17.2874 12.6522 17.1831 12.6522 17.0788C12.6522 16.9745 12.9635 16.8702 13.0673 16.8702C13.4825 16.5574 13.5863 16.1402 14.1052 15.8274C14.6241 15.6188 14.5203 15.5145 14.8317 14.9931C14.9355 14.7845 15.3506 14.1588 15.2469 13.9502C15.0393 13.7416 14.4166 13.7416 14.0014 13.533C13.69 13.3245 13.7938 13.1159 13.2749 12.9073C12.756 12.5945 12.8598 12.4902 12.237 12.3859H11.8219ZM3 11.0301C3.10379 6.44149 6.52875 3 11.0954 3C14.6241 3 17.3226 5.19004 18.568 8.42295C19.3983 10.8216 18.9832 13.1159 17.7377 15.2016C15.7658 18.4346 11.9257 19.7903 8.39692 18.5388C6.11361 17.8088 4.34923 16.1402 3.51893 13.9502V13.8459C3.20757 12.9073 3 11.9687 3 11.0301V11.0301Z" fill="white"/>
</svg>
