<svg width="148" height="44" viewBox="0 0 148 44" fill="none" xmlns="http://www.w3.org/2000/svg">
<rect width="148" height="44" rx="7.45763" fill="black"/>
<path fill-rule="evenodd" clip-rule="evenodd" d="M118.699 33.5591H120.795V19.575H118.699V33.5591ZM137.59 24.6122L135.186 30.6753H135.114L132.618 24.6122H130.359L134.102 33.0859L131.968 37.7999H134.155L139.922 24.6122H137.59ZM125.695 31.9707C125.009 31.9707 124.05 31.6295 124.05 30.7838C124.05 29.7043 125.244 29.2904 126.275 29.2904C127.195 29.2904 127.63 29.4884 128.19 29.758C128.027 31.0534 126.906 31.9707 125.695 31.9707ZM125.949 24.3068C124.43 24.3068 122.858 24.9724 122.207 26.4479L124.068 27.2209C124.466 26.4479 125.207 26.1962 125.985 26.1962C127.069 26.1962 128.172 26.8428 128.19 27.9939V28.1382C127.81 27.9234 126.996 27.599 126.003 27.599C123.995 27.599 121.953 28.6964 121.953 30.7469C121.953 32.6184 123.598 33.8243 125.442 33.8243C126.851 33.8243 127.63 33.1945 128.117 32.4562H128.19V33.5368H130.215V28.1751C130.215 25.6917 128.352 24.3068 125.949 24.3068ZM112.987 26.3148H110.004V21.5214H112.987C114.555 21.5214 115.445 22.8134 115.445 23.9175C115.445 25.0015 114.555 26.3148 112.987 26.3148ZM112.933 19.575H107.908V33.5591H110.004V28.2612H112.933C115.257 28.2612 117.542 26.5866 117.542 23.9175C117.542 21.2496 115.257 19.575 112.933 19.575ZM85.5292 31.974C84.0804 31.974 82.8676 30.7659 82.8676 29.108C82.8676 27.4323 84.0804 26.2063 85.5292 26.2063C86.9589 26.2063 88.0817 27.4323 88.0817 29.108C88.0817 30.7659 86.9589 31.974 85.5292 31.974ZM87.9368 25.3953H87.8648C87.3939 24.8371 86.4879 24.3326 85.3482 24.3326C82.9575 24.3326 80.7658 26.4233 80.7658 29.108C80.7658 31.7749 82.9575 33.8477 85.3482 33.8477C86.4879 33.8477 87.3939 33.3432 87.8648 32.7671H87.9368V33.4506C87.9368 35.2718 86.9589 36.2439 85.3842 36.2439C84.0984 36.2439 83.3015 35.3255 82.9755 34.5503L81.1468 35.3076C81.6717 36.5694 83.0654 38.1187 85.3842 38.1187C87.8468 38.1187 89.9296 36.6768 89.9296 33.1631V24.62H87.9368V25.3953ZM91.3784 33.5591H93.478V19.575H91.3784V33.5591ZM96.5745 28.9458C96.5206 27.1079 98.0054 26.1705 99.0732 26.1705C99.9071 26.1705 100.613 26.5855 100.849 27.1795L96.5745 28.9458ZM103.094 27.3596C102.695 26.2969 101.482 24.3326 99.0012 24.3326C96.5386 24.3326 94.4918 26.2611 94.4918 29.0901C94.4918 31.757 96.5206 33.8477 99.2361 33.8477C101.427 33.8477 102.695 32.5143 103.221 31.7391L101.591 30.6574C101.047 31.4505 100.305 31.974 99.2361 31.974C98.1683 31.974 97.4074 31.4874 96.9196 30.5321L103.311 27.901L103.094 27.3596ZM52.1683 25.7924V27.8104H57.0205C56.8767 28.9458 56.4956 29.7748 55.9168 30.3509C55.2098 31.0545 54.1049 31.8297 52.1683 31.8297C49.1797 31.8297 46.844 29.4325 46.844 26.4591C46.844 23.4857 49.1797 21.0885 52.1683 21.0885C53.7801 21.0885 54.9569 21.7194 55.8258 22.5304L57.2566 21.1064C56.0427 19.9531 54.432 19.0693 52.1683 19.0693C48.0748 19.0693 44.6343 22.3861 44.6343 26.4591C44.6343 30.5321 48.0748 33.8477 52.1683 33.8477C54.3769 33.8477 56.0427 33.1262 57.3465 31.7749C58.6863 30.4415 59.1033 28.5677 59.1033 27.0531C59.1033 26.5855 59.0673 26.1526 58.9943 25.7924H52.1683ZM64.6198 31.974C63.1721 31.974 61.9222 30.7838 61.9222 29.0901C61.9222 27.3775 63.1721 26.2063 64.6198 26.2063C66.0686 26.2063 67.3185 27.3775 67.3185 29.0901C67.3185 30.7838 66.0686 31.974 64.6198 31.974ZM64.6198 24.3326C61.9762 24.3326 59.8215 26.3327 59.8215 29.0901C59.8215 31.8297 61.9762 33.8477 64.6198 33.8477C67.2645 33.8477 69.4192 31.8297 69.4192 29.0901C69.4192 26.3327 67.2645 24.3326 64.6198 24.3326ZM75.0885 31.974C73.6397 31.974 72.3899 30.7838 72.3899 29.0901C72.3899 27.3775 73.6397 26.2063 75.0885 26.2063C76.5373 26.2063 77.7861 27.3775 77.7861 29.0901C77.7861 30.7838 76.5373 31.974 75.0885 31.974ZM75.0885 24.3326C72.4449 24.3326 70.2903 26.3327 70.2903 29.0901C70.2903 31.8297 72.4449 33.8477 75.0885 33.8477C77.7321 33.8477 79.8868 31.8297 79.8868 29.0901C79.8868 26.3327 77.7321 24.3326 75.0885 24.3326Z" fill="white"/>
<path fill-rule="evenodd" clip-rule="evenodd" d="M51.8024 11.4583C51.8024 12.3957 51.5237 13.1419 50.9651 13.699C50.33 14.3612 49.5039 14.6923 48.4878 14.6923C47.5145 14.6923 46.6861 14.3567 46.0061 13.6844C45.3238 13.0132 44.9844 12.1799 44.9844 11.1865C44.9844 10.192 45.3238 9.35975 46.0061 8.68744C46.6861 8.01626 47.5145 7.68066 48.4878 7.68066C48.97 7.68066 49.4331 7.77463 49.8714 7.96144C50.3109 8.14938 50.6627 8.39883 50.9269 8.71094L50.3334 9.30158C49.8872 8.77134 49.2724 8.5051 48.4878 8.5051C47.7775 8.5051 47.1638 8.75344 46.6456 9.25012C46.1275 9.74792 45.8689 10.3923 45.8689 11.1865C45.8689 11.9796 46.1275 12.6251 46.6456 13.1217C47.1638 13.6195 47.7775 13.8668 48.4878 13.8668C49.2409 13.8668 49.8681 13.6173 50.3716 13.1173C50.6976 12.7917 50.8864 12.3398 50.9359 11.7581H48.4878V10.9516H51.7552C51.7867 11.1272 51.8024 11.295 51.8024 11.4583ZM56.9832 8.65511H53.9125V10.7828H56.6809V11.5893H53.9125V13.717H56.9832V14.5425H53.0459V7.83067H56.9832V8.65511ZM59.7707 14.5422H60.6373V8.65478H62.5211V7.83034H57.8869V8.65478H59.7707V14.5422ZM65.8742 14.5421H66.7408V7.83023H65.8742V14.5421ZM69.7175 14.5422H70.584V8.65478H72.4678V7.83034H67.8337V8.65478H69.7175V14.5422ZM76.9355 13.1128C77.4346 13.6162 78.0449 13.8668 78.7676 13.8668C79.4892 13.8668 80.1007 13.6162 80.5997 13.1128C81.0988 12.6094 81.3494 11.9673 81.3494 11.1865C81.3494 10.4057 81.0988 9.76246 80.5997 9.26019C80.1007 8.7568 79.4892 8.5051 78.7676 8.5051C78.0449 8.5051 77.4346 8.7568 76.9355 9.26019C76.4376 9.76246 76.187 10.4057 76.187 11.1865C76.187 11.9673 76.4376 12.6094 76.9355 13.1128ZM81.2404 13.6744C80.5772 14.3534 79.7534 14.6923 78.7676 14.6923C77.7819 14.6923 76.958 14.3534 76.296 13.6744C75.6329 12.9965 75.3024 12.1675 75.3024 11.1865C75.3024 10.2054 75.6329 9.37541 76.296 8.69751C76.958 8.01961 77.7819 7.68066 78.7676 7.68066C79.7477 7.68066 80.5694 8.02073 81.2359 8.70199C81.9013 9.38324 82.234 10.211 82.234 11.1865C82.234 12.1675 81.9024 12.9965 81.2404 13.6744ZM83.45 7.83034V14.5422H84.3166V10.3618L84.2784 9.06756H84.3166L87.7448 14.5422H88.6496V7.83034H87.7818V11.7579L87.8201 13.0511H87.7818L84.5043 7.83034H83.45Z" fill="white"/>
<path fill-rule="evenodd" clip-rule="evenodd" d="M11.3478 8.05973C10.9753 8.49832 10.7871 9.06058 10.822 9.63131V34.3714C10.787 34.9421 10.9752 35.5044 11.3478 35.9429L11.4319 36.0236L25.5078 22.1648V21.8378L11.4319 7.97852L11.3478 8.05973Z" fill="url(#paint0_linear_1405_19755)"/>
<path fill-rule="evenodd" clip-rule="evenodd" d="M30.1995 26.7858L25.5078 22.1642V21.8372L30.2006 17.2168L30.3064 17.2762L35.8654 20.3861C37.4533 21.2743 37.4533 22.7277 35.8654 23.6164L30.3064 26.7264L30.1995 26.7858Z" fill="url(#paint1_linear_1405_19755)"/>
<path fill-rule="evenodd" clip-rule="evenodd" d="M30.3062 26.726L25.5076 22.001L11.3477 35.9425C12.0152 36.5222 13.0076 36.5511 13.7087 36.0112L30.3062 26.726Z" fill="url(#paint2_linear_1405_19755)"/>
<path fill-rule="evenodd" clip-rule="evenodd" d="M30.3062 17.276L13.7087 7.99077C13.0076 7.45091 12.0152 7.47978 11.3477 8.05946L25.5076 22.0011L30.3062 17.276Z" fill="url(#paint3_linear_1405_19755)"/>
<path opacity="0.2" fill-rule="evenodd" clip-rule="evenodd" d="M30.2004 26.6221L13.7087 35.8479C13.0374 36.351 12.109 36.3559 11.4323 35.8598L11.3477 35.9432L11.4317 36.0238L11.4323 36.0233C12.1089 36.5196 13.0375 36.5147 13.7087 36.0113L30.3062 26.7261L30.2004 26.6221Z" fill="black"/>
<path opacity="0.12" fill-rule="evenodd" clip-rule="evenodd" d="M11.3478 35.7796C10.9753 35.341 10.7872 34.7787 10.822 34.208V34.3714C10.7872 34.9422 10.9753 35.5044 11.3478 35.943L11.4325 35.8597L11.3478 35.7796Z" fill="black"/>
<path opacity="0.12" fill-rule="evenodd" clip-rule="evenodd" d="M35.8655 23.4532L30.2007 26.6225L30.3065 26.7265L35.8655 23.6166C36.5315 23.332 36.9877 22.7135 37.0565 22.002C36.914 22.6435 36.4726 23.1813 35.8655 23.4532Z" fill="black"/>
<path opacity="0.25" fill-rule="evenodd" clip-rule="evenodd" d="M13.7091 8.15522L35.8657 20.5498C36.473 20.8216 36.9145 21.3598 37.0567 22.0016C36.9883 21.2897 36.532 20.6708 35.8657 20.3864L13.7091 7.99179C12.1212 7.10347 10.8223 7.84133 10.8223 9.63206V9.79549C10.8223 8.00488 12.1212 7.26702 13.7091 8.15522Z" fill="white"/>
<defs>
<linearGradient id="paint0_linear_1405_19755" x1="19.3428" y1="-8.8308" x2="-3.15444" y2="-2.75356" gradientUnits="userSpaceOnUse">
<stop stop-color="#00A0FF"/>
<stop offset="0.00657" stop-color="#00A1FF"/>
<stop offset="0.2601" stop-color="#00BEFF"/>
<stop offset="0.5122" stop-color="#00D2FF"/>
<stop offset="0.7604" stop-color="#00DFFF"/>
<stop offset="1" stop-color="#00E3FF"/>
</linearGradient>
<linearGradient id="paint1_linear_1405_19755" x1="37.9329" y1="10.6117" x2="10.4413" y2="10.6117" gradientUnits="userSpaceOnUse">
<stop stop-color="#FFE000"/>
<stop offset="0.4087" stop-color="#FFBD00"/>
<stop offset="0.7754" stop-color="#FFA500"/>
<stop offset="1" stop-color="#FF9C00"/>
</linearGradient>
<linearGradient id="paint2_linear_1405_19755" x1="10.9359" y1="14.7509" x2="-6.77019" y2="44.9831" gradientUnits="userSpaceOnUse">
<stop stop-color="#FF3A44"/>
<stop offset="1" stop-color="#C31162"/>
</linearGradient>
<linearGradient id="paint3_linear_1405_19755" x1="0.297023" y1="4.20817" x2="8.20363" y2="17.7081" gradientUnits="userSpaceOnUse">
<stop stop-color="#32A071"/>
<stop offset="0.0685" stop-color="#2DA771"/>
<stop offset="0.4762" stop-color="#15CF74"/>
<stop offset="0.8009" stop-color="#06E775"/>
<stop offset="1" stop-color="#00F076"/>
</linearGradient>
</defs>
</svg>
