<svg width="22" height="22" viewBox="0 0 22 22" fill="none" xmlns="http://www.w3.org/2000/svg">
<path fill-rule="evenodd" clip-rule="evenodd" d="M13.1742 12.1996C13.7305 11.4692 14.0435 10.5301 14.0435 9.52127C14.0435 7.01706 12.0264 5 9.52208 5C7.01779 5 5 7.01772 5 9.52193C5 12.0261 7.01712 14.0432 9.52142 14.0432C10.5303 14.0432 11.4342 13.7302 12.1998 13.1739L15.8174 16.7913C15.9563 16.9302 16.1304 17 16.3045 17C16.4787 17 16.6521 16.9302 16.7917 16.7913C17.0695 16.5128 17.0695 16.0955 16.7911 15.817L13.1742 12.1996ZM9.52208 12.6522C7.78277 12.6522 6.39172 11.2612 6.39172 9.52193C6.39172 7.78268 7.78277 6.39167 9.52208 6.39167C11.2614 6.39167 12.6525 7.78268 12.6525 9.52193C12.6525 11.2605 11.2607 12.6522 9.52208 12.6522Z" fill="white"/>
<mask id="mask0_1405_11974" style="mask-type:luminance" maskUnits="userSpaceOnUse" x="5" y="5" width="12" height="12">
<path fill-rule="evenodd" clip-rule="evenodd" d="M13.1742 12.1996C13.7305 11.4692 14.0435 10.5301 14.0435 9.52127C14.0435 7.01706 12.0264 5 9.52208 5C7.01779 5 5 7.01772 5 9.52193C5 12.0261 7.01712 14.0432 9.52142 14.0432C10.5303 14.0432 11.4342 13.7302 12.1998 13.1739L15.8174 16.7913C15.9563 16.9302 16.1304 17 16.3045 17C16.4787 17 16.6521 16.9302 16.7917 16.7913C17.0695 16.5128 17.0695 16.0955 16.7911 15.817L13.1742 12.1996ZM9.52208 12.6522C7.78277 12.6522 6.39172 11.2612 6.39172 9.52193C6.39172 7.78268 7.78277 6.39167 9.52208 6.39167C11.2614 6.39167 12.6525 7.78268 12.6525 9.52193C12.6525 11.2605 11.2607 12.6522 9.52208 12.6522Z" fill="white"/>
</mask>
<g mask="url(#mask0_1405_11974)">
</g>
</svg>
