<svg width="22" height="22" viewBox="0 0 22 22" fill="none" xmlns="http://www.w3.org/2000/svg">
<path fill-rule="evenodd" clip-rule="evenodd" d="M4.44733 3H17.5527C18.352 3 19 3.648 19 4.44733V17.5526C19 18.352 18.352 19 17.5526 19H4.44733C3.648 19 3 18.352 3 17.5526V4.44733C3 3.648 3.648 3 4.44733 3ZM7.52988 17.2366C7.76251 17.2366 7.95108 17.0481 7.95108 16.8155V9.2996C7.95108 9.06697 7.76251 8.87841 7.52988 8.87841H5.73696C5.50434 8.87841 5.31577 9.06697 5.31577 9.2996V16.8155C5.31577 17.0481 5.50434 17.2366 5.73696 17.2366H7.52988ZM6.63342 8.16993C5.69273 8.16993 4.93014 7.40733 4.93014 6.46664C4.93014 5.52595 5.69273 4.76335 6.63342 4.76335C7.57412 4.76335 8.33671 5.52595 8.33671 6.46664C8.33671 7.40733 7.57416 8.16993 6.63342 8.16993ZM16.9336 17.2366C17.1474 17.2366 17.3208 17.0632 17.3208 16.8494V13.2119L17.3208 13.185C17.3209 11.5981 17.3211 8.75229 14.2578 8.75229C12.8666 8.75229 12.2132 9.26157 11.7735 9.92138V9.26568C11.7735 9.05181 11.6001 8.87841 11.3862 8.87841H9.52544C9.31158 8.87841 9.13818 9.05181 9.13818 9.26568V16.8494C9.13818 17.0632 9.31158 17.2366 9.52544 17.2366H11.3862C11.6001 17.2366 11.7735 17.0632 11.7735 16.8494V12.7832C11.8218 12.2369 12.0623 11.0195 13.248 11.0195C14.664 11.0195 14.636 12.5457 14.6241 13.1886C14.6232 13.2397 14.6224 13.2853 14.6224 13.324V16.8494C14.6224 17.0632 14.7958 17.2366 15.0096 17.2366H16.9336Z" fill="#0077B7"/>
</svg>
