<svg width="95" height="28" viewBox="0 0 95 28" fill="none" xmlns="http://www.w3.org/2000/svg">
<path d="M34.3188 1.41587V19.5169C34.3188 19.5169 34.3808 22.3196 32.0523 24.9818C29.7238 27.644 26.6672 27.9664 25.8577 27.9664C25.0481 27.9664 22.3755 27.9664 22.3755 27.9664L22.8162 7.83114C22.8162 7.83114 22.8738 4.80413 25.4125 2.2753C27.8315 -0.134287 30.9191 0.0370689 30.9191 0.0370689H32.9842C32.9842 0.0361856 34.3188 -0.0892402 34.3188 1.41587Z" fill="url(#paint0_linear_1_4054)"/>
<path d="M11.2863 15.7029L11.3883 27.9664H1.21134C1.21134 27.9664 7.69326e-05 27.9381 7.69326e-05 26.9956C7.69326e-05 26.0532 7.69326e-05 23.3176 7.69326e-05 23.3176C7.69326e-05 23.3176 -0.045146 20.6104 2.05728 18.3359C4.1597 16.0624 6.66735 15.7629 7.44855 15.7629C8.22976 15.7629 11.2863 15.7029 11.2863 15.7029Z" fill="url(#paint1_linear_1_4054)"/>
<path d="M22.867 27.9663H10.8218L11.2855 15.7029C11.2855 15.7029 11.1428 12.7836 13.8499 10.1885C15.7076 8.40784 17.4323 7.95825 18.938 7.95825C20.4436 7.95825 22.8129 7.95825 22.8129 7.95825L22.867 27.9663Z" fill="url(#paint2_linear_1_4054)"/>
<path opacity="0.61" d="M22.3652 27.9673C22.3652 27.9673 22.5692 27.9673 22.8671 27.9673L22.8139 7.95923L22.3652 27.9673Z" fill="#B50D31"/>
<path opacity="0.59" d="M11.2853 15.552L10.8101 27.9665H11.3758L11.2853 15.552Z" fill="#C84E28"/>
<path fill-rule="evenodd" clip-rule="evenodd" d="M49.6026 10.308H46.7342H46.7333V11.5676C46.2224 11.05 45.6664 10.6614 45.0644 10.4026C44.4633 10.1438 43.8198 10.0139 43.1339 10.0139C41.6435 10.0139 40.3769 10.5774 39.3347 11.7045C38.2925 12.8316 37.771 14.2766 37.771 16.0405C37.771 17.7417 38.3093 19.1638 39.3868 20.3086C40.4644 21.4533 41.7417 22.0257 43.2178 22.0257C43.8755 22.0257 44.4863 21.9082 45.0494 21.6741C45.6124 21.4392 46.1746 21.0558 46.7342 20.5241V21.7315H49.6026V10.308ZM41.5092 13.6C42.0961 12.9738 42.8324 12.6602 43.719 12.6602C44.626 12.6602 45.3764 12.9685 45.9704 13.5841C46.5636 14.1998 46.8606 15.0053 46.8606 15.999C46.8606 17.0148 46.5636 17.8354 45.9704 18.4616C45.3773 19.0879 44.6304 19.4014 43.7296 19.4014C42.8572 19.4014 42.1218 19.0826 41.5251 18.4457C40.9284 17.8089 40.6297 16.9962 40.6297 16.0096C40.6297 15.0301 40.9231 14.2263 41.5092 13.6Z" fill="#4A4A4C"/>
<path fill-rule="evenodd" clip-rule="evenodd" d="M54.9161 6.15036C54.5563 5.78645 54.125 5.60449 53.622 5.60449C53.119 5.60449 52.6894 5.78291 52.3332 6.13976C51.977 6.49661 51.7993 6.92676 51.7993 7.43112C51.7993 7.95667 51.9788 8.40273 52.3385 8.77017C52.6983 9.13762 53.1332 9.32134 53.6432 9.32134C54.1391 9.32134 54.5652 9.14115 54.9214 8.78077C55.2776 8.42039 55.4553 7.98493 55.4553 7.47351C55.4553 6.95503 55.2759 6.51427 54.9161 6.15036ZM55.0558 10.308H52.1874V21.7314H55.0558V10.308Z" fill="#4A4A4C"/>
<path d="M56.9897 10.3079H59.4489V11.7468C59.7149 11.1797 60.0685 10.7495 60.5105 10.4554C60.9516 10.1613 61.4351 10.0146 61.9601 10.0146C62.3314 10.0146 62.7203 10.1127 63.127 10.3088L62.2342 12.7758C61.8983 12.608 61.6207 12.524 61.4042 12.524C60.9631 12.524 60.59 12.797 60.2851 13.3429C59.9801 13.8887 59.8281 14.9601 59.8281 16.5553L59.8387 17.1118V21.7314H56.9915V10.3079H56.9897Z" fill="#4A4A4C"/>
<path fill-rule="evenodd" clip-rule="evenodd" d="M75.1548 10.308H72.2864H72.2855V11.5676C71.7746 11.05 71.2186 10.6614 70.6166 10.4026C70.0156 10.1438 69.3721 10.0139 68.6861 10.0139C67.1958 10.0139 65.9291 10.5774 64.8869 11.7045C63.8448 12.8316 63.3232 14.2766 63.3232 16.0405C63.3232 17.7417 63.8616 19.1638 64.9391 20.3086C66.0166 21.4533 67.2939 22.0257 68.7701 22.0257C69.4277 22.0257 70.0385 21.9082 70.6016 21.6741C71.1647 21.4392 71.7269 21.0558 72.2864 20.5241V21.7315H75.1548V10.308ZM67.0614 13.6C67.6484 12.9738 68.3847 12.6602 69.2713 12.6602C70.1791 12.6602 70.9296 12.9685 71.5227 13.5841C72.1158 14.1998 72.4128 15.0053 72.4128 15.999C72.4128 17.0148 72.1158 17.8354 71.5227 18.4616C70.9296 19.0879 70.1826 19.4014 69.2819 19.4014C68.4086 19.4014 67.674 19.0826 67.0773 18.4457C66.4798 17.8089 66.1819 16.9962 66.1819 16.0096C66.1819 15.0301 66.4745 14.2263 67.0614 13.6Z" fill="#4A4A4C"/>
<path d="M77.7402 5.89868H80.6086V21.7324H77.7402V5.89868Z" fill="#4A4A4C"/>
<path fill-rule="evenodd" clip-rule="evenodd" d="M91.6249 10.8229C90.6756 10.284 89.6617 10.0146 88.5833 10.0146C87.0912 10.0146 85.7706 10.5323 84.6232 11.5675C83.3132 12.7572 82.6582 14.2447 82.6582 16.0298C82.6582 17.6957 83.2372 19.1107 84.3969 20.2766C85.5566 21.4417 86.9559 22.0246 88.5948 22.0246C89.7085 22.0246 90.7277 21.7605 91.6523 21.2323C92.5769 20.7041 93.307 19.971 93.8427 19.0329C94.3784 18.0958 94.6462 17.0871 94.6462 16.0095C94.6462 14.9381 94.3793 13.9408 93.8471 13.0169C93.315 12.093 92.5743 11.3617 91.6249 10.8229ZM86.4052 13.6423C86.9975 13.0231 87.74 12.7131 88.631 12.7131C89.5432 12.7131 90.2919 13.0187 90.878 13.6317C91.4631 14.2438 91.7566 15.0405 91.7566 16.0201C91.7566 16.9996 91.4587 17.8017 90.8621 18.4244C90.2654 19.048 89.5185 19.3589 88.6204 19.3589C87.7223 19.3589 86.9807 19.0515 86.3946 18.435C85.8086 17.8193 85.516 17.0138 85.516 16.0201C85.516 15.0546 85.813 14.2615 86.4052 13.6423Z" fill="#4A4A4C"/>
<defs>
<linearGradient id="paint0_linear_1_4054" x1="21.3627" y1="0.3601" x2="29.5441" y2="26.6895" gradientUnits="userSpaceOnUse">
<stop offset="0.0198" stop-color="#A75584"/>
<stop offset="0.4205" stop-color="#B6496F"/>
<stop offset="0.5737" stop-color="#BF4868"/>
<stop offset="0.819" stop-color="#D64455"/>
<stop offset="0.9056" stop-color="#E0434D"/>
</linearGradient>
<linearGradient id="paint1_linear_1_4054" x1="-2.9648" y1="11.4506" x2="-14.3308" y2="36.423" gradientUnits="userSpaceOnUse">
<stop offset="0.00284334" stop-color="#FFE065"/>
<stop offset="0.0241" stop-color="#FFDC54"/>
<stop offset="0.1284" stop-color="#FFC906"/>
<stop offset="0.1449" stop-color="#FEC30C"/>
<stop offset="0.26" stop-color="#F59D31"/>
<stop offset="0.3206" stop-color="#F28F3F"/>
<stop offset="0.4698" stop-color="#ED6948"/>
</linearGradient>
<linearGradient id="paint2_linear_1_4054" x1="8.32551" y1="11.3739" x2="18.1679" y2="30.3835" gradientUnits="userSpaceOnUse">
<stop offset="0.0181" stop-color="#CF5C6C"/>
<stop offset="0.0904" stop-color="#D85F68"/>
<stop offset="0.2682" stop-color="#EB6661"/>
<stop offset="0.3956" stop-color="#F1685F"/>
<stop offset="0.6521" stop-color="#F0774F"/>
<stop offset="0.9568" stop-color="#F08441"/>
</linearGradient>
</defs>
</svg>
