<svg width="46" height="28" viewBox="0 0 46 28" fill="none" xmlns="http://www.w3.org/2000/svg">
<path fill-rule="evenodd" clip-rule="evenodd" d="M18.1323 19.8692H27.867V2.37842H18.1323V19.8692Z" fill="#ED6A2C"/>
<path fill-rule="evenodd" clip-rule="evenodd" d="M18.7506 11.1237C18.7506 7.57525 20.4123 4.41519 22.9999 2.37831C21.1074 0.888661 18.7197 0 16.1244 0C9.98076 0 5 4.98034 5 11.1237C5 17.2671 9.98076 22.2474 16.1244 22.2474C18.7197 22.2474 21.1074 21.3588 22.9999 19.8691C20.4123 17.8322 18.7506 14.6722 18.7506 11.1237Z" fill="#D82E2B"/>
<path fill-rule="evenodd" clip-rule="evenodd" d="M40.6529 18.0167V17.5851H40.5401L40.4103 17.8817L40.2808 17.5851H40.168V18.0167H40.2474V17.6907L40.3692 17.9716H40.4517L40.5731 17.6901V18.0167H40.6529ZM39.9387 18.0167V17.6586H40.083V17.5854H39.7152V17.6586H39.8599V18.0167H39.9387ZM41.0002 11.1237C41.0002 17.2671 36.0195 22.2471 29.8755 22.2471C27.2805 22.2471 24.8925 21.3585 23 19.8691C25.5879 17.8322 27.2493 14.6722 27.2493 11.1237C27.2493 7.57525 25.5879 4.41488 23 2.37831C24.8925 0.888661 27.2805 0 29.8755 0C36.0195 0 41.0002 4.98034 41.0002 11.1237Z" fill="#EAA240"/>
<path fill-rule="evenodd" clip-rule="evenodd" d="M40.2862 27.6202V27.6928H40.3533C40.3684 27.6928 40.3808 27.69 40.3897 27.6838C40.3987 27.678 40.4033 27.6684 40.4033 27.656C40.4033 27.644 40.3987 27.635 40.3897 27.6288C40.3808 27.6233 40.3684 27.6202 40.3533 27.6202H40.2862ZM40.3539 27.5689C40.3888 27.5689 40.4157 27.5766 40.4345 27.5924C40.4537 27.6081 40.463 27.6291 40.463 27.656C40.463 27.6786 40.4556 27.6971 40.4404 27.712C40.4253 27.7265 40.404 27.7354 40.3761 27.7388L40.4651 27.8417H40.3956L40.3128 27.7395H40.2862V27.8417H40.2281V27.5689H40.3539ZM40.3366 27.9354C40.3684 27.9354 40.3975 27.9292 40.425 27.9174C40.4525 27.9054 40.4763 27.889 40.497 27.8683C40.5177 27.8476 40.5337 27.8235 40.5455 27.7957C40.5572 27.7679 40.5631 27.7382 40.5631 27.7064C40.5631 27.6749 40.5572 27.6452 40.5455 27.6171C40.5337 27.5893 40.5177 27.5652 40.497 27.5445C40.4763 27.5238 40.4525 27.5077 40.425 27.496C40.3975 27.4842 40.3684 27.4784 40.3366 27.4784C40.3044 27.4784 40.2742 27.4842 40.246 27.496C40.2179 27.5077 40.1938 27.5238 40.1731 27.5445C40.1524 27.5652 40.1363 27.5893 40.1246 27.6171C40.1125 27.6452 40.107 27.6749 40.107 27.7064C40.107 27.7382 40.1125 27.7679 40.1246 27.7957C40.1363 27.8235 40.1524 27.8476 40.1731 27.8683C40.1938 27.889 40.2179 27.9054 40.246 27.9174C40.2742 27.9292 40.3044 27.9354 40.3366 27.9354ZM40.3366 27.4128C40.3777 27.4128 40.4166 27.4206 40.4528 27.4357C40.4889 27.4512 40.5208 27.4722 40.548 27.4987C40.5749 27.5253 40.5962 27.5565 40.6119 27.5924C40.6274 27.6279 40.6351 27.6659 40.6351 27.7064C40.6351 27.7466 40.6274 27.7846 40.6119 27.8201C40.5962 27.8556 40.5749 27.8865 40.548 27.9131C40.5208 27.94 40.4889 27.961 40.4528 27.9765C40.4166 27.9922 40.3777 27.9999 40.3366 27.9999C40.2942 27.9999 40.2547 27.9922 40.2179 27.9765C40.1814 27.961 40.1496 27.94 40.123 27.9131C40.0958 27.8865 40.0745 27.8556 40.0591 27.8201C40.0436 27.7846 40.0356 27.7466 40.0356 27.7064C40.0356 27.6659 40.0436 27.6279 40.0591 27.5924C40.0745 27.5565 40.0958 27.5253 40.123 27.4987C40.1496 27.4722 40.1814 27.4512 40.2179 27.4357C40.2547 27.4206 40.2942 27.4128 40.3366 27.4128ZM12.7781 26.3641C12.7781 25.845 13.1178 25.4186 13.674 25.4186C14.2056 25.4186 14.5641 25.8265 14.5641 26.3641C14.5641 26.9018 14.2056 27.3093 13.674 27.3093C13.1178 27.3093 12.7781 26.8829 12.7781 26.3641ZM15.1698 26.3641V24.8871H14.527V25.2456C14.323 24.9802 14.014 24.8133 13.5937 24.8133C12.7658 24.8133 12.1168 25.4622 12.1168 26.3641C12.1168 27.2661 12.7658 27.915 13.5937 27.915C14.014 27.915 14.323 27.7481 14.527 27.4827V27.8411H15.1698V26.3641ZM36.8735 26.3641C36.8735 25.845 37.2134 25.4186 37.7694 25.4186C38.301 25.4186 38.6594 25.8265 38.6594 26.3641C38.6594 26.9018 38.301 27.3093 37.7694 27.3093C37.2134 27.3093 36.8735 26.8829 36.8735 26.3641ZM39.2651 26.3641V23.7009H38.6223V25.2456C38.4184 24.9802 38.1093 24.8133 37.6894 24.8133C36.8611 24.8133 36.2122 25.4622 36.2122 26.3641C36.2122 27.2661 36.8611 27.915 37.6894 27.915C38.1093 27.915 38.4184 27.7481 38.6223 27.4827V27.8411H39.2651V26.3641ZM23.1417 25.3877C23.5558 25.3877 23.8216 25.6473 23.8893 26.1046H22.3568C22.4248 25.6782 22.6843 25.3877 23.1417 25.3877ZM23.1541 24.8133C22.2888 24.8133 21.6834 25.4433 21.6834 26.3641C21.6834 27.3035 22.3135 27.915 23.1973 27.915C23.6424 27.915 24.0503 27.804 24.4085 27.5009L24.0936 27.0251C23.8463 27.2231 23.5311 27.3341 23.2344 27.3341C22.8203 27.3341 22.4433 27.1425 22.3506 26.611H24.5444C24.5506 26.531 24.5571 26.4506 24.5571 26.3641C24.5506 25.4433 23.982 24.8133 23.1541 24.8133ZM30.9097 26.3641C30.9097 25.845 31.2499 25.4186 31.8062 25.4186C32.3374 25.4186 32.6956 25.8265 32.6956 26.3641C32.6956 26.9018 32.3374 27.3093 31.8062 27.3093C31.2499 27.3093 30.9097 26.8829 30.9097 26.3641ZM33.3013 26.3641V24.8871H32.6585V25.2456C32.4549 24.9802 32.1458 24.8133 31.7256 24.8133C30.8973 24.8133 30.2487 25.4622 30.2487 26.3641C30.2487 27.2661 30.8973 27.915 31.7256 27.915C32.1458 27.915 32.4549 27.7481 32.6585 27.4827V27.8411H33.3013V26.3641ZM27.2822 26.3641C27.2822 27.2602 27.9065 27.915 28.8583 27.915C29.303 27.915 29.5997 27.8164 29.9211 27.5627L29.612 27.0439C29.3713 27.2166 29.1176 27.3093 28.8398 27.3093C28.3268 27.3035 27.9497 26.9324 27.9497 26.3641C27.9497 25.7959 28.3268 25.4248 28.8398 25.4186C29.1176 25.4186 29.3713 25.5113 29.612 25.6843L29.9211 25.1656C29.5997 24.9119 29.303 24.8133 28.8583 24.8133C27.9065 24.8133 27.2822 25.4681 27.2822 26.3641ZM35.5635 24.8133C35.1926 24.8133 34.9513 24.9863 34.7847 25.2456V24.8871H34.1481V27.8411H34.7909V26.1849C34.7909 25.6967 35.0007 25.4248 35.4213 25.4248C35.5511 25.4248 35.6868 25.4433 35.8231 25.4993L36.0206 24.8936C35.8784 24.838 35.6933 24.8133 35.5635 24.8133ZM18.3461 25.122C18.037 24.9184 17.6106 24.8133 17.1408 24.8133C16.3933 24.8133 15.9112 25.1714 15.9112 25.7588C15.9112 26.2405 16.2696 26.5372 16.931 26.6299L17.2338 26.6731C17.5858 26.7226 17.7527 26.8153 17.7527 26.9821C17.7527 27.2108 17.5178 27.3405 17.0793 27.3405C16.6343 27.3405 16.3129 27.1984 16.0966 27.0316L15.7937 27.5321C16.146 27.7914 16.591 27.915 17.0731 27.915C17.9258 27.915 18.4202 27.5133 18.4202 26.9512C18.4202 26.4321 18.0309 26.1602 17.3884 26.0675L17.0855 26.0242C16.8074 25.9872 16.5849 25.9315 16.5849 25.7341C16.5849 25.5175 16.795 25.3877 17.147 25.3877C17.524 25.3877 17.8887 25.5299 18.0679 25.6414L18.3461 25.122ZM26.6332 24.8133C26.2627 24.8133 26.0216 24.9863 25.8548 25.2456V24.8871H25.2181V27.8411H25.8606V26.1849C25.8606 25.6967 26.0711 25.4248 26.4911 25.4248C26.6209 25.4248 26.7572 25.4433 26.8928 25.4993L27.0906 24.8936C26.9484 24.838 26.763 24.8133 26.6332 24.8133ZM21.1518 24.8871H20.1014V23.9914H19.4521V24.8871H18.8529V25.4745H19.4521V26.8214C19.4521 27.5074 19.7179 27.915 20.4781 27.915C20.7563 27.915 21.0777 27.8284 21.2816 27.6866L21.0962 27.1366C20.9046 27.2478 20.6944 27.3035 20.5276 27.3035C20.2062 27.3035 20.1014 27.1057 20.1014 26.8091V25.4745H21.1518V24.8871ZM11.5482 27.8411V25.9872C11.5482 25.2888 11.1032 24.8195 10.3865 24.8133C10.0095 24.8068 9.62008 24.9242 9.34812 25.3383C9.14416 25.0111 8.82276 24.8133 8.37156 24.8133C8.05635 24.8133 7.74762 24.906 7.50657 25.2521V24.8871H6.86377V27.8411H7.51275V26.2035C7.51275 25.6905 7.79706 25.4186 8.2359 25.4186C8.66206 25.4186 8.87839 25.6967 8.87839 26.1973V27.8411H9.52737V26.2035C9.52737 25.6905 9.82404 25.4186 10.2505 25.4186C10.6893 25.4186 10.8992 25.6967 10.8992 26.1973V27.8411H11.5482Z" fill="black"/>
</svg>
