<svg width="10" height="10" viewBox="0 0 10 10" fill="none" xmlns="http://www.w3.org/2000/svg">
<path fill-rule="evenodd" clip-rule="evenodd" d="M8.08105 9.90818C8.17865 9.82911 8.23846 9.72534 8.2605 9.59685C8.28254 9.46837 8.26522 9.31517 8.20855 9.13727L7.283 6.25624L9.64411 4.4871C9.78892 4.37508 9.89045 4.2606 9.94869 4.14365C10.0069 4.02669 10.0156 3.90727 9.97466 3.78537C9.93689 3.66347 9.86133 3.57205 9.748 3.5111C9.63466 3.45015 9.48985 3.42133 9.31355 3.42462L6.41411 3.44439L5.53577 0.548533C5.47911 0.367336 5.4067 0.230614 5.31855 0.138369C5.2304 0.0461229 5.12337 0 4.99744 0C4.87466 0 4.7692 0.0461229 4.68105 0.138369C4.5929 0.230614 4.5205 0.367336 4.46383 0.548533L3.5855 3.44439L0.690773 3.42462C0.511328 3.42133 0.365726 3.45015 0.253967 3.5111C0.142208 3.57205 0.0658652 3.66183 0.0249392 3.78043C-0.0159867 3.90562 -0.00654225 4.02669 0.0532726 4.14365C0.113087 4.2606 0.215402 4.37508 0.360217 4.4871L2.72133 6.25624L1.79577 9.13727C1.73911 9.31517 1.721 9.46837 1.74147 9.59685C1.76193 9.72534 1.82096 9.82911 1.91855 9.90818C2.01929 9.98725 2.13184 10.0153 2.25619 9.99219C2.38054 9.96913 2.51513 9.90159 2.65994 9.78958L4.99744 7.99079L7.33966 9.78958C7.48763 9.90159 7.62378 9.96913 7.74814 9.99219C7.87249 10.0153 7.98346 9.98725 8.08105 9.90818Z" fill="url(#paint0_linear_1_4119)"/>
<defs>
<linearGradient id="paint0_linear_1_4119" x1="0" y1="10" x2="10" y2="10" gradientUnits="userSpaceOnUse">
<stop stop-color="#FBB034"/>
<stop offset="1" stop-color="#FFCC00"/>
</linearGradient>
</defs>
</svg>
