<svg width="22" height="23" viewBox="0 0 22 23" fill="none" xmlns="http://www.w3.org/2000/svg">
<path d="M19 6.03235C18.4121 6.31346 17.7791 6.50357 17.1152 6.58851C17.7932 6.15167 18.3135 5.459 18.5586 4.63387C17.9238 5.03834 17.2222 5.3326 16.4728 5.49035C15.8755 4.80375 15.0218 4.375 14.0771 4.375C12.2655 4.375 10.7957 5.95752 10.7957 7.90913C10.7957 8.1862 10.8239 8.45517 10.8803 8.71404C8.15208 8.5664 5.73381 7.16084 4.11381 5.02014C3.83113 5.54394 3.6696 6.15167 3.6696 6.79884C3.6696 8.0244 4.24905 9.10638 5.12995 9.7404C4.59277 9.72321 4.08564 9.56243 3.64237 9.29952V9.343C3.64237 11.056 4.77402 12.4848 6.27663 12.8084C6.00147 12.8913 5.71128 12.9327 5.41169 12.9327C5.20039 12.9327 4.99378 12.9115 4.79374 12.8701C5.21166 14.2736 6.42314 15.2959 7.86001 15.3232C6.73681 16.2717 5.3206 16.837 3.78324 16.837C3.5184 16.837 3.25638 16.8208 3 16.7884C4.45284 17.7895 6.17896 18.375 8.03187 18.375C14.0705 18.375 17.3715 12.9904 17.3715 8.31967C17.3715 8.16597 17.3687 8.01227 17.3631 7.8616C18.0045 7.36308 18.5614 6.7412 19 6.03235Z" fill="#4CA7E6"/>
<mask id="mask0_1_4021" style="mask-type:luminance" maskUnits="userSpaceOnUse" x="3" y="4" width="16" height="15">
<path d="M19 6.03235C18.4121 6.31346 17.7791 6.50357 17.1152 6.58851C17.7932 6.15167 18.3135 5.459 18.5586 4.63387C17.9238 5.03834 17.2222 5.3326 16.4728 5.49035C15.8755 4.80375 15.0218 4.375 14.0771 4.375C12.2655 4.375 10.7957 5.95752 10.7957 7.90913C10.7957 8.1862 10.8239 8.45517 10.8803 8.71404C8.15208 8.5664 5.73381 7.16084 4.11381 5.02014C3.83113 5.54394 3.6696 6.15167 3.6696 6.79884C3.6696 8.0244 4.24905 9.10638 5.12995 9.7404C4.59277 9.72321 4.08564 9.56243 3.64237 9.29952V9.343C3.64237 11.056 4.77402 12.4848 6.27663 12.8084C6.00147 12.8913 5.71128 12.9327 5.41169 12.9327C5.20039 12.9327 4.99378 12.9115 4.79374 12.8701C5.21166 14.2736 6.42314 15.2959 7.86001 15.3232C6.73681 16.2717 5.3206 16.837 3.78324 16.837C3.5184 16.837 3.25638 16.8208 3 16.7884C4.45284 17.7895 6.17896 18.375 8.03187 18.375C14.0705 18.375 17.3715 12.9904 17.3715 8.31967C17.3715 8.16597 17.3687 8.01227 17.3631 7.8616C18.0045 7.36308 18.5614 6.7412 19 6.03235Z" fill="white"/>
</mask>
<g mask="url(#mask0_1_4021)">
</g>
</svg>
