<svg width="22" height="22" viewBox="0 0 22 22" fill="none" xmlns="http://www.w3.org/2000/svg">
<path fill-rule="evenodd" clip-rule="evenodd" d="M14.0109 13.25H11.5618C11.1242 13.25 10.8747 13.75 11.1379 14.0997L14.5906 18.6868C14.8029 18.9688 15.2262 18.9688 15.4385 18.6868L18.8912 14.0997C19.1544 13.75 18.9049 13.25 18.4672 13.25H16.0181V4.0036C16.0181 3.44933 15.5688 3 15.0145 3C14.4603 3 14.0109 3.44933 14.0109 4.0036V13.25ZM7.40967 3.31321C7.1974 3.0312 6.77407 3.0312 6.5618 3.31321L3.1091 7.9003C2.8459 8.24998 3.09537 8.75 3.53303 8.75H5.98214V17.9964C5.98214 18.5507 6.43146 19 6.98574 19C7.54001 19 7.98934 18.5507 7.98934 17.9964V8.75H10.4384C10.8761 8.75 11.1256 8.24998 10.8624 7.9003L7.40967 3.31321Z" fill="#4A4A4A"/>
</svg>
