<svg width="16" height="16" viewBox="0 0 16 16" fill="none" xmlns="http://www.w3.org/2000/svg">
<path fill-rule="evenodd" clip-rule="evenodd" d="M8 0C3.58737 0 0 3.58737 0 8C0 12.4126 3.58737 16 8 16C12.4126 16 16 12.4126 16 8C16 3.58737 12.4126 0 8 0ZM12.3789 12.8505V11.7389C12.3789 10.6779 11.52 9.80211 10.4421 9.80211H5.55789C4.49684 9.80211 3.62105 10.6611 3.62105 11.7389V12.8505C2.29053 11.6547 1.46526 9.92 1.46526 8C1.46526 4.39579 4.39579 1.46526 8 1.46526C11.6042 1.46526 14.5347 4.39579 14.5347 8C14.5347 9.92 13.7095 11.6547 12.3789 12.8505ZM8 9.07789C9.44175 9.07789 10.6105 7.90912 10.6105 6.46737C10.6105 5.02561 9.44175 3.85684 8 3.85684C6.55825 3.85684 5.38947 5.02561 5.38947 6.46737C5.38947 7.90912 6.55825 9.07789 8 9.07789Z" fill="white"/>
</svg>
