<svg width="46" height="28" viewBox="0 0 46 28" fill="none" xmlns="http://www.w3.org/2000/svg">
<path fill-rule="evenodd" clip-rule="evenodd" d="M22.7761 7.26502L19.7029 21.7722H15.9858L19.0593 7.26502H22.7761ZM38.4139 16.6327L40.3708 11.1845L41.4963 16.6327H38.4139ZM42.563 21.7722H46L42.9972 7.26502H39.8266C39.112 7.26502 38.51 7.68342 38.2433 8.3285L32.6658 21.7722H36.5694L37.3445 19.6058H42.1126L42.563 21.7722ZM32.8593 17.0359C32.8757 13.2075 27.6179 12.9952 27.6528 11.2846C27.6642 10.7647 28.1551 10.211 29.2287 10.0695C29.7612 10.0001 31.2297 9.94429 32.8947 10.7188L33.5459 7.64113C32.6515 7.31464 31.5008 7 30.0692 7C26.3946 7 23.8095 8.97075 23.7888 11.7952C23.7654 13.8838 25.6354 15.0482 27.0413 15.7438C28.491 16.4548 28.9769 16.911 28.9699 17.5462C28.9598 18.5195 27.8136 18.9503 26.747 18.9666C24.8767 18.9959 23.7933 18.4563 22.9294 18.0498L22.2547 21.23C23.1245 21.6321 24.7273 21.982 26.387 22C30.2934 22 32.8478 20.0521 32.8593 17.0359ZM17.4649 7.26502L11.4422 21.7722H7.51346L4.54946 10.1944C4.36992 9.48247 4.21327 9.22083 3.66682 8.92C2.77301 8.42971 1.29729 7.97128 0 7.68596L0.0876776 7.26502H6.41275C7.21832 7.26502 7.94319 7.80635 8.12749 8.74323L9.69312 17.1388L13.5599 7.26502H17.4649Z" fill="#1B1F6D"/>
</svg>
