<svg width="23" height="23" viewBox="0 0 23 23" fill="none" xmlns="http://www.w3.org/2000/svg">
<path fill-rule="evenodd" clip-rule="evenodd" d="M4.12332 4.12308C3.00049 5.24592 3.00049 7.0531 3.00049 10.6674V11.3342C3.00049 14.9485 3.00049 16.7557 4.12332 17.8785C5.24616 19.0014 7.05334 19.0014 10.6677 19.0014H11.3344C14.9488 19.0014 16.756 19.0014 17.8788 17.8785C19.0016 16.7557 19.0016 14.9485 19.0016 11.3342V10.6674C19.0016 7.0531 19.0016 5.24592 17.8788 4.12308C16.756 3.00024 14.9488 3.00024 11.3344 3.00024H10.6677C7.05334 3.00024 5.24616 3.00024 4.12332 4.12308ZM6.16741 8.0006H7.33443C7.63268 8.0006 7.74489 8.1311 7.85673 8.45419C8.4275 10.1164 9.38987 11.5691 9.7855 11.5691C9.93384 11.5691 10.0019 11.5008 10.0019 11.1241V9.40596C9.97512 8.91689 9.80423 8.70538 9.67765 8.54872C9.59948 8.45197 9.53821 8.37614 9.53821 8.26878C9.53821 8.13827 9.64976 8.0006 9.83517 8.0006H11.6691C11.9164 8.0006 12.0025 8.1328 12.0025 8.42949V10.741C12.0025 10.9881 12.1099 11.0747 12.184 11.0747C12.3324 11.0747 12.4561 10.9881 12.7281 10.7162C13.5688 9.77679 14.1622 8.33055 14.1622 8.33055C14.2364 8.15754 14.3733 8.0006 14.67 8.0006H15.837C16.1899 8.0006 16.2641 8.18224 16.1899 8.42949C16.0415 9.10931 14.6197 11.1118 14.6197 11.1118C14.4961 11.3095 14.4466 11.4084 14.6197 11.6309C14.6807 11.7162 14.8107 11.8436 14.9595 11.9894C15.1126 12.1392 15.2854 12.3085 15.4234 12.4715C15.9247 13.0353 16.3025 13.5109 16.4077 13.8388C16.5039 14.1677 16.3372 14.3344 16.0037 14.3344H14.8367C14.5241 14.3344 14.3667 14.1593 14.0266 13.7811C13.8825 13.6208 13.7055 13.4239 13.4699 13.1884C12.7775 12.5209 12.4808 12.4344 12.3077 12.4344C12.0728 12.4344 12.0025 12.5009 12.0025 12.8343V13.8806C12.0025 14.1677 11.9107 14.3344 11.1689 14.3344C9.93254 14.3344 8.57385 13.5839 7.60948 12.1995C6.16293 10.1723 5.76728 8.63961 5.76728 8.33055C5.76728 8.15754 5.83397 8.0006 6.16741 8.0006Z" fill="#2787F5"/>
</svg>
